<?xml version="1.0" encoding="utf-8"?>
<!-- Generator: Adobe Illustrator 27.5.0, SVG Export Plug-In . SVG Version: 6.00 Build 0)  -->
<svg version="1.1" xmlns="http://www.w3.org/2000/svg" xmlns:xlink="http://www.w3.org/1999/xlink" x="0px" y="0px"
	 viewBox="0 0 500 500" style="enable-background:new 0 0 500 500;" xml:space="preserve">
<g id="Background_Complete">
	<g>
		<g>
			<g>
				<g>
					<g>
						<g>
							<g>
								<g>
									<g>
										<path style="fill:#E0E0E0;" d="M415.723,428.226h3.413l7.448-10.379l0-6.812c0,0,5.275-0.324,4.654,8.595
											c-0.621,8.92,0.051,6.649,0.051,6.649s11.201,0.043,12.131,1.016c0.677,0.707,0.983,11.833,1.1,17.867
											c0.059,3.037-1.804,5.862-4.629,6.58c-0.401,0.103-0.807,0.162-1.205,0.162c-2.794,0-17.067-2.271-17.067-2.271l-5.895,0
											V428.226z"/>
									</g>
								</g>
							</g>
						</g>
					</g>
				</g>
				<g>
					<g>
						<g>
							<g>
								<g>
									<g>
										<polygon style="fill:#E0E0E0;" points="405.954,426.356 408.053,449.698 413.897,449.698 413.897,426.826 										"/>
									</g>
								</g>
							</g>
						</g>
					</g>
				</g>
			</g>
		</g>
	</g>
	<g>
		<g>
			<path style="fill:#E0E0E0;" d="M241.211,77.244l14.701,21.02c1.611,2.303,5.039,2.246,6.572-0.109l14.229-21.861L241.211,77.244z
				"/>
		</g>
		<g>
			<path style="fill:#E0E0E0;" d="M278.489,88.874h-41.261c-6.386,0-11.564-5.177-11.564-11.564V53.612
				c0-6.386,5.177-11.564,11.564-11.564h41.261c6.386,0,11.564,5.177,11.564,11.564V77.31
				C290.053,83.697,284.875,88.874,278.489,88.874z"/>
		</g>
		<g>
			<path style="fill:#FFFFFF;" d="M270.467,61.158c-2.064-3.772-5.486-4.358-7.787-3.499c-2.501,0.934-3.799,3.499-3.799,3.499
				s-1.298-2.565-3.799-3.499c-2.301-0.859-5.723-0.273-7.787,3.499c-4.307,7.872,11.585,18.121,11.585,18.121
				S274.774,69.03,270.467,61.158z"/>
		</g>
	</g>
	<g>
		<path style="fill:#E0E0E0;" d="M79.805,404.913h33.907c7.54,0,13.652,6.112,13.652,13.652v17.211
			c0,7.54-6.112,13.652-13.652,13.652h-8.86l-6.243,8.926c-1.531,2.189-4.79,2.135-6.248-0.104l-5.742-8.822h-6.814
			c-7.54,0-13.652-6.112-13.652-13.652v-17.211C66.153,411.025,72.265,404.913,79.805,404.913z"/>
		<g>
			<polygon style="fill:#FFFFFF;" points="95.55,418.586 95.55,436.147 82.98,427.367 			"/>
			<path style="fill:#FFFFFF;" d="M112.371,437.533c0,0-0.832-12.477-10.813-12.662H95.18v5.361l6.285,0.092
				C101.465,430.324,108.045,430.171,112.371,437.533z"/>
		</g>
	</g>
	<g>
		
			<ellipse transform="matrix(0.2306 -0.973 0.973 0.2306 -142.7211 257.5344)" style="fill:#E0E0E0;" cx="91.496" cy="219.02" rx="8.99" ry="8.99"/>
		<path style="fill:#E0E0E0;" d="M91.496,226.917c-8.488,0-15.369,6.881-15.369,15.369h30.739
			C106.866,233.798,99.985,226.917,91.496,226.917z"/>
	</g>
	<g>
		<path style="fill:#E0E0E0;" d="M343.254,50.123c0,3.453-2.799,6.252-6.252,6.252s-6.252-2.799-6.252-6.252
			c0-3.453,2.799-6.252,6.252-6.252S343.254,46.67,343.254,50.123z"/>
		<path style="fill:#E0E0E0;" d="M360.595,64.751c0,3.453-2.799,6.252-6.252,6.252s-6.252-2.799-6.252-6.252
			c0-3.453,2.799-6.252,6.252-6.252S360.595,61.298,360.595,64.751z"/>
		<path style="fill:#E0E0E0;" d="M343.351,79.669c0,3.453-2.799,6.252-6.252,6.252s-6.252-2.799-6.252-6.252
			c0-3.453,2.799-6.252,6.252-6.252S343.351,76.217,343.351,79.669z"/>
		<polyline style="fill:none;stroke:#E0E0E0;stroke-miterlimit:10;" points="337.003,50.123 354.343,64.751 337.099,79.669 		"/>
	</g>
	<g>
		<path style="fill:#E0E0E0;" d="M451.099,196.747c-2.699-4.933-7.175-5.7-10.184-4.576c-3.27,1.222-4.968,4.576-4.968,4.576
			s-1.698-3.354-4.968-4.576c-3.009-1.124-7.484-0.357-10.184,4.576c-5.633,10.295,15.152,23.699,15.152,23.699
			S456.733,207.042,451.099,196.747z"/>
	</g>
	<g>
		<path style="fill:#E0E0E0;" d="M426.518,244.747c-1.923-3.515-5.112-4.061-7.255-3.26c-2.33,0.87-3.54,3.26-3.54,3.26
			s-1.21-2.39-3.54-3.26c-2.143-0.801-5.332-0.255-7.255,3.26c-4.013,7.335,10.795,16.884,10.795,16.884
			S430.531,252.082,426.518,244.747z"/>
	</g>
</g>
<g id="Background_Simple" style="display:none;">
	<path style="display:inline;fill:#F5F5F5;" d="M404.682,125.554l-2.164-3.566c-18.24-30.058-51.219-48.178-85.989-45.979
		c-4.469,0.283-8.92,0.888-13.311,1.828c-31.613,6.767-59.121,30.674-70.523,61.291c-6.705,18.006-8.579,38.738-21.304,53.031
		c-16.561,18.601-44.677,19.185-69.397,18.415c-24.72-0.771-52.855-0.113-69.335,18.561c-10.321,11.695-13.602,28.327-12.769,43.99
		c2.204,41.468,31.099,78.546,67.846,96.976c36.748,18.43,80.014,20.08,120.232,11.973c56.341-11.357,109.92-42.547,142.126-90.72
		C422.299,243.18,430.449,177.549,404.682,125.554z"/>
</g>
<g id="Speech_Bubble_1_">
	<g>
		<g>
			<path style="fill:#FFFFFF;" d="M442.75,74.348h-66.683c-8.176,0-14.804,6.628-14.804,14.804v40.418
				c0,8.176,6.628,14.804,14.804,14.804h20.61l11.554,16.521c1.579,2.258,4.942,2.202,6.445-0.107l10.683-16.413h17.391
				c8.176,0,14.804-6.628,14.804-14.804V89.152C457.555,80.976,450.927,74.348,442.75,74.348z"/>
			<g>
				<path style="fill:#263238;" d="M442.75,74.349c0,0,0.168-0.005,0.499,0.005c0.329,0.03,0.829-0.018,1.47,0.1
					c1.282,0.143,3.228,0.536,5.415,1.788c2.16,1.231,4.63,3.355,6.157,6.677c0.763,1.643,1.279,3.559,1.365,5.634
					c0.066,2.067,0.028,4.244,0.046,6.549c0.016,9.217,0.034,20.341,0.056,32.986c0.024,1.569-0.014,3.222-0.382,4.831
					c-0.343,1.616-1.009,3.183-1.909,4.618c-1.798,2.867-4.643,5.228-8.058,6.319c-1.695,0.565-3.527,0.761-5.332,0.75
					c-1.8,0.001-3.62,0.003-5.459,0.004c-3.678,0.003-7.433,0.005-11.259,0.008l0.203-0.11c-1.993,3.066-4.033,6.203-6.114,9.405
					c-1.041,1.601-2.092,3.217-3.153,4.848c-0.544,0.818-1.032,1.63-1.629,2.463c-0.634,0.833-1.616,1.388-2.658,1.541
					c-1.042,0.143-2.149-0.103-3.009-0.738c-0.44-0.296-0.795-0.727-1.087-1.141l-0.863-1.233c-1.153-1.648-2.315-3.307-3.484-4.978
					c-2.338-3.342-4.708-6.729-7.102-10.151l0.213,0.111c-3.581,0-7.411,0-11.272,0.001c-2.813,0-5.608,0-8.386,0
					c-1.38,0.03-2.815-0.07-4.182-0.356c-1.374-0.299-2.684-0.814-3.924-1.45c-2.44-1.348-4.503-3.33-5.869-5.715
					c-1.394-2.364-2.055-5.115-2.036-7.797c0.005-10.607,0.01-20.839,0.015-30.586c0.002-2.437,0.004-4.843,0.005-7.218
					c0.008-1.189-0.025-2.359,0.063-3.554c0.022-0.595,0.161-1.176,0.235-1.76c0.141-0.572,0.271-1.148,0.453-1.705
					c0.74-2.226,1.985-4.237,3.57-5.865c1.59-1.627,3.54-2.833,5.603-3.583c0.51-0.208,1.041-0.343,1.57-0.472
					c0.523-0.159,1.066-0.209,1.598-0.296c1.071-0.14,2.148-0.141,3.186-0.136c2.091,0.003,4.143,0.005,6.155,0.008
					c4.023,0.006,7.884,0.011,11.57,0.017c14.733,0.035,26.657,0.063,34.915,0.083c4.112,0.021,7.308,0.038,9.493,0.049
					c1.075,0.011,1.898,0.02,2.469,0.026C442.466,74.331,442.75,74.349,442.75,74.349s-0.285,0.018-0.841,0.027
					c-0.571,0.006-1.394,0.015-2.469,0.026c-2.185,0.011-5.381,0.028-9.493,0.049c-8.258,0.02-20.182,0.048-34.915,0.083
					c-3.686,0.005-7.547,0.011-11.57,0.017c-2.012,0.003-4.064,0.005-6.155,0.008c-1.05-0.002-2.093,0.002-3.132,0.14
					c-0.517,0.087-1.045,0.135-1.552,0.291c-0.514,0.126-1.029,0.258-1.524,0.462c-2.001,0.732-3.892,1.907-5.432,3.489
					c-1.535,1.583-2.739,3.536-3.453,5.694c-0.175,0.54-0.3,1.098-0.436,1.653c-0.07,0.567-0.206,1.13-0.225,1.707
					c-0.083,1.143-0.051,2.333-0.056,3.518c0.002,2.375,0.003,4.781,0.005,7.218c0.005,9.747,0.01,19.979,0.015,30.586
					c-0.016,2.61,0.623,5.253,1.971,7.539c1.32,2.303,3.315,4.217,5.67,5.518c1.197,0.613,2.462,1.11,3.788,1.399
					c1.334,0.275,2.674,0.372,4.072,0.344c2.777,0,5.573,0,8.386,0c3.861,0,7.691,0.001,11.272,0.001l0.135,0l0.078,0.111
					c2.393,3.423,4.762,6.811,7.099,10.154c1.168,1.672,2.329,3.332,3.481,4.98l0.862,1.234c0.284,0.401,0.575,0.755,0.967,1.021
					c0.751,0.556,1.722,0.772,2.639,0.648c0.915-0.136,1.773-0.618,2.331-1.35c0.546-0.761,1.072-1.624,1.605-2.426
					c1.062-1.63,2.115-3.246,3.157-4.845c2.085-3.199,4.128-6.335,6.125-9.398l0.072-0.111l0.132,0
					c3.826,0.003,7.581,0.005,11.259,0.008c1.839,0.001,3.659,0.003,5.459,0.004c1.791,0.012,3.538-0.173,5.192-0.718
					c3.314-1.051,6.08-3.338,7.833-6.119c0.878-1.392,1.528-2.912,1.865-4.482c0.36-1.57,0.403-3.148,0.383-4.738
					c0.021-12.645,0.04-23.769,0.056-32.986c-0.008-2.3,0.04-4.493-0.014-6.538c-0.073-2.039-0.569-3.926-1.31-5.548
					c-1.482-3.28-3.902-5.396-6.027-6.636c-2.15-1.261-4.075-1.678-5.347-1.845c-0.636-0.131-1.134-0.096-1.461-0.14
					C442.919,74.371,442.75,74.349,442.75,74.349z"/>
			</g>
		</g>
		<g>
			<polygon style="fill:#FF725E;" points="411.309,95.858 411.309,123.483 431.083,109.671 			"/>
			<path style="fill:#FF725E;" d="M384.848,125.664c0,0,1.309-19.628,17.011-19.919h10.032v8.433l-9.887,0.145
				C402.004,114.323,391.654,114.082,384.848,125.664z"/>
		</g>
	</g>
</g>
<g id="Character_2">
	<g>
		<path style="fill:#FFFFFF;" d="M48.236,171.715h137.574c7.735,0,14.005-6.27,14.005-14.005V51.275
			c0-7.735-6.27-14.005-14.005-14.005H48.236c-7.735,0-14.006,6.27-14.006,14.005V157.71
			C34.23,165.445,40.501,171.715,48.236,171.715z"/>
		<path style="fill:#455A64;" d="M110.37,167.599c-1.699,4.116-34.543,34.983-34.543,34.983v-34.983H110.37z"/>
		<g>
			<g>
				<path style="fill:#263238;" d="M150.538,96.272c0.084-7.013,1.189-14.002,0.92-21.011c-0.269-7.008-2.114-14.308-7.003-19.335
					c-4.89-5.027-13.381-6.946-19.102-2.889l-1.174,5.968c2.252,27.042,4.504,54.083,6.756,81.124
					c0.296,3.552,0.62,7.207,2.235,10.384c1.615,3.177,4.857,5.8,8.415,5.581c4.655-0.286,7.71-5.005,9.157-9.439
					C155.99,130.584,150.335,113.177,150.538,96.272z"/>
			</g>
			<g>
				<path style="fill:#FF725E;" d="M133.672,59.911c-1.019-1.733-2.067-3.493-3.565-4.833c-1.499-1.34-3.546-2.219-5.521-1.844
					c-0.93,0.177-1.875,0.705-2.188,1.598c-0.312,0.893,0.355,2.086,1.299,2.009l0.201,0.172c2.1,1.858,4.236,3.673,6.408,5.446
					c0.547,0.446,1.114,0.9,1.789,1.107c0.675,0.207,1.491,0.111,1.96-0.417C134.829,62.276,134.263,60.917,133.672,59.911z"/>
			</g>
			<g>
				<path style="fill:#263238;" d="M137.634,66.795c-6.989-8.542-16.375-13.46-27.41-13.643c-6.226-0.103-8.803,1.191-13.286,2.401
					c-4.484,1.21-8.529,3.615-11.204,7.412c-3.177,4.509-5.846,9.559-6.446,15.042c-0.617,5.632-1.235,11.303-0.81,16.953
					c0.425,5.65,1.959,11.34,5.286,15.927l14.376,2.498c7.94,0.271,15.989,0.531,23.724-1.28
					c7.735-1.811,15.251-5.973,19.393-12.752C147.013,89.934,144.623,75.338,137.634,66.795z"/>
			</g>
			<g>
				<g>
					<g>
						<g>
							<g>
								<g>
									<g>
										<path style="fill:#B56760;" d="M98.084,138.903c0.096-5.045,0.266-11.369,0.266-11.346c0,0-11.723-1.291-14.961-16.316
											c-1.611-7.472-1.91-19.851-1.828-29.988c0.074-9.125,7.844-21.549,19.11-21.589l5.007-0.582l19.166,7.618
											c2.768,0.14,4.969,2.375,5.066,5.146l0.724,66.069l-12.281,20.511l-21.973-17.023L98.084,138.903z"/>
									</g>
								</g>
							</g>
						</g>
					</g>
				</g>
				<g>
					<g>
						<path style="fill:#8A4A43;" d="M105.925,107.725c-0.104-0.792-0.544-1.492-1.106-1.973c-1.123-0.962-2.764-1.055-3.965-0.226
							c-1.202,0.829-1.89,2.53-1.663,4.11l0,0c0.674,0.927,1.706,1.553,2.848,1.652c0.178,0.016,0.356,0.022,0.535,0.017
							c0.866-0.022,1.747-0.315,2.409-0.954C105.644,109.713,106.054,108.702,105.925,107.725z"/>
					</g>
				</g>
				<g>
					<g>
						<g>
							<g>
								<g>
									<g>
										<g>
											<g>
												<g>
													<g>
														<g>
															<g>
																<g>
																	<g>
																		<g>
																			<g>
																				<g>
																					<g>
																						<g>
																							<g>
																								<path style="fill:#263238;" d="M87.606,92.965c0.02,1.029,0.908,1.86,1.982,1.858
																									c1.072-0.001,1.927-0.834,1.908-1.862c-0.02-1.028-0.908-1.861-1.98-1.859
																									C88.441,91.103,87.586,91.937,87.606,92.965z"/>
																							</g>
																						</g>
																					</g>
																				</g>
																			</g>
																		</g>
																	</g>
																</g>
															</g>
														</g>
													</g>
												</g>
											</g>
										</g>
									</g>
								</g>
							</g>
							<g>
								<g>
									<g>
										<g>
											<g>
												<g>
													<g>
														<g>
															<g>
																<g>
																	<g>
																		<g>
																			<g>
																				<g>
																					<g>
																						<g>
																							<g>
																								<g>
																									<path style="fill:#263238;" d="M84.994,86.321c0.255,0.24,1.668-0.93,3.76-1.04
																										c2.088-0.139,3.682,0.853,3.895,0.584c0.105-0.119-0.166-0.563-0.86-1.014
																										c-0.685-0.448-1.833-0.858-3.136-0.781c-1.302,0.079-2.372,0.619-2.975,1.144
																										C85.062,85.744,84.87,86.214,84.994,86.321z"/>
																								</g>
																							</g>
																						</g>
																					</g>
																				</g>
																			</g>
																		</g>
																	</g>
																</g>
															</g>
														</g>
													</g>
												</g>
											</g>
										</g>
									</g>
								</g>
							</g>
							<g>
								<g>
									<g>
										<g>
											<g>
												<g>
													<g>
														<g>
															<g>
																<g>
																	<g>
																		<g>
																			<g>
																				<g>
																					<g>
																						<g>
																							<g>
																								<path style="fill:#263238;" d="M98.436,102.726c0.003-0.119-1.309-0.272-3.431-0.426
																									c-0.537-0.026-1.048-0.104-1.159-0.464c-0.147-0.379,0.045-0.967,0.27-1.603
																									c0.431-1.32,0.883-2.704,1.356-4.154c1.875-5.911,3.202-10.76,2.964-10.833
																									c-0.239-0.074-1.953,4.658-3.829,10.569c-0.449,1.457-0.88,2.846-1.288,4.174
																									c-0.169,0.618-0.479,1.326-0.162,2.112c0.166,0.391,0.574,0.659,0.921,0.733
																									c0.348,0.086,0.649,0.075,0.914,0.076C97.119,102.908,98.435,102.845,98.436,102.726z"/>
																							</g>
																						</g>
																					</g>
																				</g>
																			</g>
																		</g>
																	</g>
																</g>
															</g>
														</g>
													</g>
												</g>
											</g>
										</g>
									</g>
								</g>
							</g>
							<g>
								<g>
									<g>
										<g>
											<g>
												<g>
													<g>
														<g>
															<g>
																<g>
																	<g>
																		<g>
																			<g>
																				<g>
																					<g>
																						<g>
																							<path style="fill:#8A4A43;" d="M98.35,127.557c0,0,10.232,0.098,20.001-6.529
																								c0,0-4.831,10.803-20.078,10.217L98.35,127.557z"/>
																						</g>
																					</g>
																				</g>
																			</g>
																		</g>
																	</g>
																</g>
															</g>
														</g>
													</g>
												</g>
											</g>
										</g>
									</g>
								</g>
							</g>
							<g>
								<g>
									<g>
										<g>
											<g>
												<g>
													<g>
														<g>
															<g>
																<g>
																	<g>
																		<g>
																			<g>
																				<g>
																					<g>
																						<g>
																							<g>
																								<path style="fill:#263238;" d="M104.671,103.835c-0.341-0.001-0.221,2.269-2.076,3.988
																									c-1.85,1.723-4.285,1.601-4.285,1.919c-0.024,0.144,0.563,0.412,1.586,0.383
																									c1.004-0.021,2.45-0.423,3.584-1.474c1.132-1.053,1.569-2.4,1.595-3.336
																									C105.11,104.362,104.826,103.813,104.671,103.835z"/>
																							</g>
																						</g>
																					</g>
																				</g>
																			</g>
																		</g>
																	</g>
																</g>
															</g>
														</g>
													</g>
												</g>
											</g>
										</g>
									</g>
								</g>
							</g>
							<g>
								<g>
									<g>
										<g>
											<g>
												<g>
													<g>
														<g>
															<g>
																<g>
																	<g>
																		<g>
																			<g>
																				<g>
																					<g>
																						<g>
																							<g>
																								<g>
																									<g>
																										<path style="fill:#263238;" d="M85.707,78.996c0.38,0.491,1.963,0.062,3.842,0.115
																											c1.881-0.007,3.458,0.46,3.844-0.022c0.171-0.235-0.061-0.721-0.738-1.2
																											c-0.667-0.476-1.798-0.889-3.091-0.906c-1.292-0.014-2.429,0.37-3.102,0.831
																											C85.778,78.276,85.54,78.757,85.707,78.996z"/>
																									</g>
																								</g>
																							</g>
																						</g>
																					</g>
																				</g>
																			</g>
																		</g>
																	</g>
																</g>
															</g>
														</g>
													</g>
												</g>
											</g>
										</g>
									</g>
								</g>
							</g>
							<g>
								<g>
									<g>
										<g>
											<g>
												<g>
													<g>
														<g>
															<g>
																<g>
																	<g>
																		<g>
																			<g>
																				<g>
																					<g>
																						<g>
																							<g>
																								<path style="fill:#263238;" d="M111.409,92.457c0.054,1.028-0.771,1.92-1.843,1.996
																									c-1.069,0.076-1.983-0.692-2.037-1.72c-0.054-1.027,0.771-1.921,1.84-1.997
																									C110.441,90.659,111.355,91.43,111.409,92.457z"/>
																							</g>
																						</g>
																					</g>
																				</g>
																			</g>
																		</g>
																	</g>
																</g>
															</g>
														</g>
													</g>
												</g>
											</g>
										</g>
									</g>
								</g>
							</g>
							<g>
								<g>
									<g>
										<g>
											<g>
												<g>
													<g>
														<g>
															<g>
																<g>
																	<g>
																		<g>
																			<g>
																				<g>
																					<g>
																						<g>
																							<g>
																								<g>
																									<path style="fill:#263238;" d="M113.302,85.512c-0.237,0.258-1.73-0.807-3.825-0.766
																										c-2.093,0.012-3.611,1.117-3.843,0.864c-0.114-0.112,0.125-0.574,0.785-1.073
																										c0.651-0.496,1.766-0.988,3.071-1.006c1.305-0.015,2.411,0.446,3.05,0.926
																										C113.192,84.941,113.419,85.396,113.302,85.512z"/>
																								</g>
																							</g>
																						</g>
																					</g>
																				</g>
																			</g>
																		</g>
																	</g>
																</g>
															</g>
														</g>
													</g>
												</g>
											</g>
										</g>
									</g>
								</g>
							</g>
							<g>
								<g>
									<g>
										<g>
											<g>
												<g>
													<g>
														<g>
															<g>
																<g>
																	<g>
																		<g>
																			<g>
																				<g>
																					<g>
																						<g>
																							<g>
																								<g>
																									<g>
																										<path style="fill:#263238;" d="M112.044,78.81c-0.404,0.482-2.029,0.018-3.972,0.028
																											c-1.943-0.05-3.583,0.382-3.97-0.109c-0.171-0.239,0.081-0.72,0.792-1.183
																											c0.701-0.461,1.879-0.848,3.215-0.836c1.336,0.015,2.5,0.425,3.184,0.901
																											C111.988,78.088,112.222,78.575,112.044,78.81z"/>
																									</g>
																								</g>
																							</g>
																						</g>
																					</g>
																				</g>
																			</g>
																		</g>
																	</g>
																</g>
															</g>
														</g>
													</g>
												</g>
											</g>
										</g>
									</g>
								</g>
							</g>
						</g>
					</g>
				</g>
				<g>
					<g>
						<g>
							<g>
								<g>
									<g>
										<g>
											<g>
												<g>
													<g>
														<g>
															<g>
																<g>
																	<g>
																		<g>
																			<g>
																				<g>
																					<path style="fill:#B56760;" d="M127.305,97.316c-0.059-1.129,1.099-3.862,2.204-4.097
																						c2.951-0.627,8.33-0.683,8.795,6.874c0.635,10.33-9.867,8.837-9.904,8.542
																						C128.372,108.405,127.51,101.214,127.305,97.316z"/>
																				</g>
																			</g>
																		</g>
																	</g>
																</g>
															</g>
														</g>
													</g>
												</g>
											</g>
										</g>
									</g>
								</g>
							</g>
						</g>
					</g>
					<g>
						<g>
							<g>
								<g>
									<g>
										<g>
											<g>
												<g>
													<g>
														<g>
															<g>
																<g>
																	<g>
																		<g>
																			<g>
																				<g>
																					<g>
																						<path style="fill:#8A4A43;" d="M131.018,104.687c0.043-0.036,0.188,0.115,0.5,0.236
																							c0.305,0.117,0.821,0.18,1.347-0.055c1.067-0.468,1.879-2.257,1.814-4.122
																							c-0.031-0.942-0.283-1.825-0.662-2.546c-0.362-0.736-0.883-1.234-1.439-1.297
																							c-0.554-0.093-0.923,0.26-1.032,0.558c-0.121,0.298-0.042,0.5-0.096,0.521
																							c-0.027,0.028-0.232-0.159-0.175-0.59c0.03-0.208,0.136-0.46,0.367-0.673
																							c0.235-0.216,0.593-0.342,0.979-0.324c0.8,0.007,1.562,0.695,1.978,1.486c0.46,0.792,0.765,1.783,0.801,2.841
																							c0.062,2.086-0.884,4.099-2.351,4.623c-0.715,0.234-1.335,0.052-1.663-0.172
																							C131.052,104.936,130.984,104.707,131.018,104.687z"/>
																					</g>
																				</g>
																			</g>
																		</g>
																	</g>
																</g>
															</g>
														</g>
													</g>
												</g>
											</g>
										</g>
									</g>
								</g>
							</g>
						</g>
					</g>
				</g>
			</g>
			<g>
				<g>
					<path style="fill:#263238;" d="M129.931,93.249l-2.625,2.722c-11.334-10.849-33.484-38.012-32.248-36.394
						c0,0,7.765-3.193,16.192-1.758c8.428,1.436,24.413,5.654,24.168,15.594C135.173,83.354,129.931,93.249,129.931,93.249z"/>
				</g>
			</g>
			<g>
				<path style="fill:#455A64;" d="M144.941,90.968c0.017-0.006-0.037-0.21-0.158-0.598c-0.124-0.386-0.345-0.945-0.705-1.629
					c-0.718-1.36-2.092-3.201-4.317-4.858c-2.192-1.702-5.231-3.091-8.692-4.181c-3.455-1.126-7.351-1.999-11.174-3.641
					c-3.849-1.58-7.28-3.618-10.206-5.716c-2.917-2.12-5.325-4.319-7.203-6.297c-1.879-1.98-3.245-3.724-4.166-4.943
					c-0.423-0.581-0.766-1.053-1.036-1.424c-0.24-0.324-0.373-0.49-0.389-0.48c-0.015,0.01,0.088,0.195,0.3,0.539
					c0.216,0.341,0.521,0.854,0.958,1.485c0.873,1.262,2.202,3.051,4.06,5.079c1.857,2.025,4.26,4.274,7.19,6.436
					c2.938,2.14,6.399,4.213,10.29,5.811c3.873,1.662,7.796,2.525,11.23,3.617c3.447,1.059,6.438,2.386,8.617,4.017
					c2.211,1.588,3.598,3.351,4.36,4.658C144.657,90.162,144.888,90.988,144.941,90.968z"/>
			</g>
			<g>
				<path style="fill:#455A64;" d="M141.935,92.594c0,0,0.104-0.846-0.401-2.258c-0.482-1.401-1.704-3.304-3.882-4.864
					c-2.157-1.611-5.236-2.606-8.62-3.379c-3.398-0.75-7.086-1.709-10.712-3.399c-3.62-1.677-6.869-3.708-9.55-5.895
					c-2.696-2.171-4.871-4.424-6.547-6.435c-1.698-1.999-2.835-3.798-3.65-5.018c-0.355-0.588-0.645-1.066-0.876-1.447
					c-0.205-0.328-0.321-0.497-0.337-0.488c-0.016,0.008,0.068,0.194,0.244,0.54c0.208,0.395,0.471,0.892,0.793,1.502
					c0.765,1.258,1.862,3.101,3.537,5.148c1.653,2.058,3.822,4.362,6.53,6.577c2.693,2.231,5.973,4.301,9.637,5.998
					c3.662,1.709,7.432,2.673,10.822,3.393c3.379,0.744,6.394,1.685,8.514,3.209c2.146,1.48,3.378,3.29,3.906,4.632
					C141.893,91.762,141.865,92.606,141.935,92.594z"/>
			</g>
			<g>
				<g>
					<path style="fill:#455A64;" d="M129.59,110.739c-0.01-0.07,0.875-0.184,2.405-0.584c1.52-0.424,3.673-1.354,5.781-3.231
						c2.133-1.849,4.03-4.728,5.37-8.217c1.334-3.492,2.137-7.595,2.24-11.918c0.044-2.159-0.122-4.265-0.499-6.265
						c-0.403-1.994-0.999-3.87-1.713-5.598c-1.477-3.442-3.44-6.241-5.352-8.334c-3.845-4.205-7.049-5.9-6.934-6.044
						c0.012-0.02,0.209,0.083,0.572,0.297c0.357,0.224,0.909,0.52,1.56,0.989c1.327,0.9,3.175,2.338,5.156,4.432
						c1.986,2.083,4.032,4.906,5.574,8.412c0.746,1.76,1.37,3.676,1.791,5.717c0.395,2.045,0.57,4.206,0.525,6.41
						c-0.106,4.399-0.941,8.572-2.336,12.129c-1.401,3.553-3.396,6.49-5.637,8.351c-2.216,1.89-4.465,2.774-6.031,3.126
						c-0.777,0.215-1.415,0.221-1.829,0.291C129.813,110.749,129.592,110.762,129.59,110.739z"/>
				</g>
			</g>
		</g>
		<path style="fill:#455A64;" d="M65.139,155.482l0.259-0.328c11.381-12.043,32.329-16.076,32.329-16.076s1.281,7.885,13.024,8.765
			c11.743,0.881,20.369-11.081,20.369-11.081l15.667,2.194c0,0,7.886,0.93,12.796,3.818c11.058,6.505,16.927,28.94,16.927,28.94
			l-120.817,0.486L65.139,155.482z"/>
		<g>
			<path style="fill:#263238;" d="M54.091,37.27c0,0-0.285,0.028-0.844,0.062c-0.282,0.017-0.63,0.038-1.043,0.062
				c-0.414,0.038-0.89,0.134-1.433,0.214c-2.131,0.395-5.411,1.251-8.766,3.883c-1.663,1.301-3.331,3.023-4.696,5.232
				c-1.363,2.201-2.412,4.896-2.795,7.927c-0.187,1.513-0.175,3.102-0.164,4.751c0.003,1.647,0.005,3.349,0.008,5.105
				c0.005,3.512,0.01,7.241,0.016,11.177c0.015,15.744,0.034,34.792,0.055,56.516c0.004,5.432,0.007,11.03,0.012,16.786
				c0.008,1.437-0.029,2.895,0.077,4.329c0.091,1.441,0.389,2.869,0.785,4.276c0.85,2.799,2.382,5.419,4.415,7.617
				c1.001,1.118,2.186,2.064,3.418,2.946c1.283,0.805,2.618,1.563,4.068,2.07l1.083,0.393l1.119,0.287
				c0.74,0.226,1.514,0.296,2.279,0.423c0.766,0.12,1.55,0.1,2.327,0.157c0.789,0.001,1.58,0.002,2.373,0.003
				c6.347-0.003,12.832-0.005,19.445-0.008l0.237,0l0,0.237c0.003,9.753,0.007,20.179,0.01,30.867l-0.417-0.18
				c5.108-4.818,10.314-9.799,15.572-14.922c5.238-5.139,10.601-10.363,15.712-15.938l0.078-0.085h0.113
				c16.418-0.001,33.558-0.002,51.042-0.004c5.26,0,10.49,0,15.684,0c1.299,0,2.595,0,3.89,0c1.297,0.01,2.588,0.005,3.853-0.083
				c2.537-0.212,5.02-0.922,7.269-2.076c4.512-2.292,8.023-6.374,9.617-11.093c0.829-2.361,1.094-4.84,1.073-7.331
				c0-2.502,0.001-4.993,0.001-7.473c0.005-19.84,0.01-38.977,0.015-57.208c0.004-9.115,0.007-18.004,0.011-26.64
				c0.008-2.166,0.021-4.29-0.393-6.359c-0.443-2.057-1.195-4.025-2.216-5.826c-1.005-1.813-2.347-3.408-3.851-4.776
				c-1.509-1.363-3.198-2.524-5.037-3.326c-1.829-0.803-3.747-1.412-5.711-1.618c-1.95-0.223-3.931-0.159-5.887-0.169
				c-3.911-0.003-7.749-0.005-11.512-0.008c-7.525-0.006-14.747-0.011-21.64-0.017c-27.568-0.035-49.877-0.063-65.304-0.083
				c-7.704-0.021-13.688-0.038-17.755-0.049c-2.024-0.011-3.569-0.02-4.617-0.026C54.624,37.288,54.091,37.27,54.091,37.27
				s0.533-0.018,1.573-0.027c1.048-0.006,2.593-0.015,4.617-0.026c4.067-0.011,10.05-0.028,17.755-0.049
				c15.427-0.02,37.736-0.048,65.304-0.083c6.893-0.005,14.115-0.011,21.64-0.017c3.763-0.003,7.601-0.005,11.512-0.008
				c1.952,0.008,3.931-0.062,5.939,0.164c2.006,0.209,3.967,0.827,5.838,1.647c1.88,0.819,3.609,2.002,5.153,3.394
				c1.539,1.397,2.912,3.026,3.942,4.879c1.046,1.84,1.818,3.853,2.272,5.958c0.426,2.116,0.414,4.303,0.408,6.449
				c0.004,8.636,0.007,17.525,0.011,26.64c0.005,18.231,0.01,37.368,0.015,57.208c0,2.48,0.001,4.971,0.001,7.473
				c0.025,2.505-0.248,5.086-1.098,7.498c-1.635,4.844-5.237,9.033-9.868,11.387c-2.308,1.184-4.858,1.914-7.462,2.132
				c-1.311,0.091-2.604,0.095-3.896,0.085c-1.294,0-2.591,0-3.89,0c-5.195,0-10.424,0-15.684,0
				c-17.484-0.001-34.624-0.003-51.042-0.004l0.19-0.085c-5.133,5.595-10.495,10.814-15.74,15.955
				c-5.263,5.123-10.472,10.102-15.586,14.92l-0.417,0.393l0-0.573c0.004-10.688,0.007-21.114,0.01-30.867l0.237,0.237
				c-6.613-0.003-13.098-0.006-19.445-0.008c-0.794-0.002-1.585-0.004-2.375-0.005c-0.795-0.058-1.596-0.04-2.38-0.163
				c-0.782-0.13-1.574-0.204-2.331-0.435l-1.145-0.295l-1.108-0.402c-1.483-0.521-2.848-1.296-4.158-2.122
				c-1.259-0.903-2.469-1.871-3.491-3.015c-2.076-2.249-3.638-4.929-4.504-7.79c-0.403-1.438-0.705-2.898-0.797-4.37
				c-0.106-1.478-0.066-2.92-0.072-4.36c0.004-5.756,0.008-11.355,0.011-16.786c0.021-21.724,0.04-40.772,0.055-56.516
				c0.006-3.935,0.011-7.664,0.016-11.177c0.003-1.756,0.005-3.458,0.008-5.105c-0.005-1.642-0.013-3.246,0.182-4.779
				c0.398-3.064,1.469-5.783,2.855-7.999c1.387-2.224,3.079-3.952,4.762-5.254c3.396-2.632,6.703-3.467,8.846-3.839
				c0.547-0.074,1.025-0.164,1.441-0.196c0.415-0.017,0.764-0.032,1.047-0.043C53.806,37.271,54.091,37.27,54.091,37.27z"/>
		</g>
	</g>
</g>
<g id="Character_3">
	<g>
		<g>
			<g>
				<g>
					<g>
						<g>
							<g>
								<g>
									<path style="fill:#263238;" d="M309.013,466.092l-124.769-0.07c-15.006-0.007-27.166-11.604-27.163-25.904l0.061-298.082
										c0.003-14.308,12.18-25.903,27.194-25.895l124.77,0.07c15.006,0.009,27.165,11.605,27.162,25.905l-0.061,298.083
										C336.204,454.505,324.027,466.1,309.013,466.092z"/>
								</g>
							</g>
						</g>
					</g>
					<g>
						<g>
							<g>
								<g>
									<path style="fill:#FFFFFF;" d="M308.974,126.753l-24.191-0.013c-3.244-0.002-5.875,2.617-5.875,5.848l-0.002,4.182
										c0,3.232-2.631,5.85-5.875,5.849l-47.153-0.027c-3.244-0.001-5.873-2.623-5.873-5.855l0.001-4.182
										c0-3.232-2.629-5.853-5.873-5.855l-8.508-0.005l-21.173-0.012c-10.515-0.006-19.043,8.115-19.045,18.135l-0.06,290.949
										c-0.002,10.016,8.514,18.137,19.023,18.143l124.52,0.069c10.514,0.006,19.043-8.114,19.045-18.135l0.06-290.95
										C327.998,134.88,319.483,126.759,308.974,126.753z"/>
								</g>
							</g>
						</g>
					</g>
				</g>
			</g>
		</g>
		<g>
			<g>
				<path style="fill:#263238;" d="M242.527,199.279c3.469-0.263,6.475-3.424,6.563-6.902c0.088-3.479-2.755-6.787-6.207-7.224
					c1.698-2.569,1.547-6.219-0.356-8.639c-1.903-2.42-5.415-3.427-8.312-2.383c-0.695-2.959-3.026-5.479-5.922-6.402
					c-2.896-0.923-6.254-0.217-8.534,1.794c-3.838-2.196-9.176-1.285-12.067,2.061c-3.002,0.019-5.868,2.169-6.728,5.045
					c-0.86,2.876,0.356,6.246,2.854,7.91"/>
				<path style="fill:#C17560;" d="M243.727,200.064c-4.166-15.139-19.26-24.538-34.685-21.601l-1.533,0.292
					c-16.342,4.112-21.981,20.288-17.419,36.51l11.438,58.902l0,0l33.668,25.986l8.715-21.694l-3.431-19.603
					c0,0,15.417-5.495,12.589-21.417C251.703,229.75,247.602,214.144,243.727,200.064z"/>
				<path style="fill:#7C4236;" d="M240.607,258.808c0,0-10.028,2.541-21.973-2.129c0,0,6.884,10.85,22.462,6.402L240.607,258.808z"
					/>
				<path style="fill:#263238;" d="M242.31,215.304c0.271,1.19-0.514,2.4-1.751,2.705c-1.235,0.304-2.458-0.41-2.728-1.6
					c-0.27-1.19,0.514-2.401,1.749-2.706C240.817,213.398,242.04,214.115,242.31,215.304z"/>
				<path style="fill:#263238;" d="M241.792,208.486c-0.225,0.349-2.185-0.596-4.625-0.124c-2.444,0.436-3.996,2.033-4.317,1.784
					c-0.156-0.108,0.029-0.697,0.701-1.413c0.66-0.712,1.865-1.511,3.387-1.794c1.522-0.28,2.908,0.035,3.752,0.468
					C241.55,207.84,241.905,208.327,241.792,208.486z"/>
				<path style="fill:#263238;" d="M220.165,219.99c0.27,1.19-0.514,2.399-1.752,2.704c-1.235,0.305-2.457-0.41-2.728-1.6
					c-0.27-1.189,0.515-2.401,1.749-2.706C218.672,218.083,219.895,218.8,220.165,219.99z"/>
				<path style="fill:#263238;" d="M217.885,213.508c-0.225,0.349-2.188-0.594-4.626-0.123c-2.443,0.436-3.996,2.032-4.318,1.784
					c-0.155-0.107,0.027-0.695,0.702-1.412c0.66-0.712,1.864-1.511,3.386-1.794c1.522-0.281,2.908,0.035,3.752,0.468
					C217.639,212.863,217.997,213.35,217.885,213.508z"/>
				<path style="fill:#263238;" d="M230.19,229.925c-0.038-0.137,1.429-0.688,3.828-1.47c0.611-0.183,1.177-0.419,1.202-0.865
					c0.061-0.478-0.327-1.1-0.768-1.769c-0.873-1.396-1.787-2.861-2.747-4.396c-3.847-6.27-6.757-11.474-6.504-11.627
					c0.254-0.152,3.578,4.806,7.424,11.077c0.933,1.549,1.825,3.025,2.675,4.438c0.37,0.664,0.929,1.39,0.789,2.385
					c-0.079,0.498-0.472,0.923-0.851,1.107c-0.377,0.198-0.726,0.271-1.031,0.348C231.758,229.758,230.226,230.061,230.19,229.925z"
					/>
				<path style="fill:#263238;" d="M217.043,205.058c-0.204,0.68-2.424,0.408-5.015,0.815c-2.6,0.349-4.678,1.247-5.036,0.648
					c-0.16-0.287,0.192-0.93,1.025-1.602c0.826-0.671,2.153-1.32,3.71-1.548c1.556-0.225,2.992,0.022,3.948,0.434
					C216.638,204.215,217.13,204.735,217.043,205.058z"/>
				<path style="fill:#263238;" d="M240.443,199.788c-0.409,0.652-2.533,0.46-4.961,0.894c-2.44,0.363-4.403,1.224-4.985,0.734
					c-0.261-0.242-0.044-0.859,0.753-1.555c0.783-0.691,2.18-1.4,3.853-1.675c1.673-0.273,3.211-0.045,4.162,0.362
					C240.229,198.957,240.619,199.474,240.443,199.788z"/>
				<path style="fill:#C17560;" d="M195.586,230.24c-0.567-2.433-3.048-3.966-5.446-3.269c-2.909,0.845-5.885,3.155-4.524,9.24
					c2.414,10.794,12.753,6.143,12.702,5.829C198.284,241.827,196.637,234.747,195.586,230.24z"/>
				<path style="fill:#7C4236;" d="M195.061,238.504c-0.055-0.024-0.159,0.174-0.444,0.391c-0.278,0.211-0.789,0.428-1.399,0.343
					c-1.234-0.163-2.599-1.759-3.086-3.693c-0.247-0.976-0.251-1.957-0.076-2.81c0.153-0.864,0.54-1.529,1.091-1.759
					c0.542-0.26,1.025-0.008,1.225,0.267c0.212,0.27,0.192,0.5,0.253,0.506c0.036,0.02,0.191-0.233,0.005-0.659
					c-0.093-0.204-0.276-0.431-0.576-0.581c-0.306-0.153-0.711-0.175-1.101-0.042c-0.82,0.243-1.397,1.177-1.59,2.112
					c-0.238,0.95-0.257,2.058,0.021,3.154c0.556,2.16,2.124,3.946,3.786,4.048c0.804,0.028,1.386-0.342,1.656-0.67
					C195.1,238.77,195.103,238.516,195.061,238.504z"/>
				<path style="fill:#263238;" d="M230.4,179.191c-0.15-0.252-0.329-0.491-0.527-0.702c-1.507-1.605-3.816-2.31-5.992-2.051
					c-1.428-0.417-2.816-0.706-4.111-0.874c-2.01-2.284-5.093-3.635-8.137-3.381c-3.455,0.287-6.626,2.613-8.048,5.762
					c-0.433,0.148-0.864,0.308-1.295,0.472c-2.542-1.195-5.601-1.27-8.178-0.143c-2.891,1.264-5.091,3.998-5.71,7.092
					c-2.774-0.192-5.591,1.403-6.853,3.88c-1.262,2.477-0.897,5.694,0.888,7.825c-1.74,1.487-3.042,3.745-2.654,6
					c0.365,2.122,2.697,3.83,4.686,3.192c0.607,5.276,2.334,11.299,3.635,16.65c0.917,3.768,6.189,5.105,7.012,7.624
					c4.201,12.855,7.122,4.751,3.584-22.841c0.234-0.263,0.467-0.542,0.702-0.85c0.472-0.622,0.483-1.301,0.869-1.98
					c0.46-0.81,1.596-0.8,2.524-0.876c3.221-0.266,6.029-3.115,6.249-6.339c1.035,1.052,2.904,0.642,3.973-0.375
					c1.069-1.018,1.609-2.453,2.355-3.727c0.746-1.274,1.898-2.505,3.373-2.574c0.824-0.039,1.667,0.296,2.461,0.071
					c1.402-0.398,1.78-2.201,1.727-3.657c-0.045-1.227-0.147-2.61,0.453-3.614c0.795-0.57,1.64-1.049,2.61-1.313
					c0.552-0.042,1.12-0.036,1.661-0.059c0.252-0.01,0.513-0.048,0.773-0.1c0.339,0.044,0.69,0.11,1.062,0.209
					c5.238,1.408,11.322,10.558,11.322,10.558C239.948,186.704,235.522,182.103,230.4,179.191z"/>
				<path style="fill:#455A64;" d="M181.138,197.911c-0.008-0.004,0.016-0.064,0.071-0.177c0.059-0.111,0.133-0.285,0.265-0.492
					c0.266-0.41,0.715-0.994,1.461-1.555c0.743-0.547,1.779-1.1,3.084-1.303c1.286-0.224,2.872-0.096,4.318,0.74l-0.276,0.147
					c0.083-2.222,1.341-4.626,3.456-6.289c1.05-0.836,2.295-1.516,3.669-1.93c1.376-0.413,2.853-0.567,4.346-0.512
					c2.914,0.12,5.604,1.015,7.924,2.035l-0.3,0.158c0.521-2.654,2.116-4.788,3.922-6.068c1.822-1.307,3.837-1.73,5.444-1.734
					c1.627-0.004,2.881,0.391,3.685,0.726c0.404,0.171,0.705,0.327,0.898,0.447c0.195,0.117,0.293,0.184,0.287,0.194
					c-0.017,0.031-0.426-0.208-1.238-0.507c-0.808-0.288-2.047-0.632-3.629-0.59c-1.565,0.042-3.498,0.485-5.232,1.763
					c-1.722,1.252-3.231,3.319-3.712,5.849l-0.051,0.266l-0.249-0.108c-2.295-0.993-4.938-1.859-7.768-1.975
					c-1.448-0.054-2.879,0.095-4.198,0.487c-1.317,0.393-2.518,1.041-3.53,1.838c-2.042,1.589-3.253,3.864-3.361,5.97l-0.016,0.302
					l-0.261-0.155c-1.342-0.799-2.846-0.952-4.085-0.762c-1.257,0.168-2.269,0.675-3.007,1.18
					C181.573,196.917,181.201,197.964,181.138,197.911z"/>
				<path style="fill:#455A64;" d="M223.359,183.052c0.014,0.005-0.03,0.161-0.106,0.456c-0.061,0.3-0.138,0.746-0.171,1.333
					c-0.038,0.587-0.039,1.31-0.067,2.159c-0.053,0.84-0.04,1.854-0.556,2.875c-0.267,0.501-0.767,0.935-1.372,1.103
					c-0.599,0.187-1.237,0.188-1.868,0.232c-0.627,0.045-1.283,0.131-1.82,0.485c-0.538,0.357-0.965,0.923-1.348,1.526
					c-0.383,0.607-0.723,1.28-1.095,1.954c-0.36,0.66-0.673,1.438-1.297,2.043c-0.607,0.597-1.389,1.015-2.228,1.251
					c-0.422,0.117-0.867,0.191-1.331,0.165c-0.457-0.018-0.962-0.189-1.312-0.569l0.386-0.14c-0.036,0.657-0.14,1.326-0.376,1.969
					c-0.244,0.637-0.59,1.244-1.03,1.788c-0.897,1.072-2.132,1.882-3.501,2.324c-0.562,0.2-1.147,0.305-1.727,0.393
					c-0.607,0.06-1.134,0.036-1.577,0.302c-0.461,0.248-0.763,0.634-0.991,1.145c-0.255,0.506-0.553,0.982-0.875,1.435
					c-1.28,1.79-3.039,3.268-5.092,3.68c-2.052,0.343-4.01-0.271-5.511-1.215c-1.51-0.964-2.584-2.311-3.161-3.682l0.205,0.081
					c-1.333,0.557-2.718,0.348-3.693-0.174c-0.999-0.528-1.573-1.369-1.862-2.076c-0.296-0.719-0.332-1.33-0.318-1.729
					c0.011-0.201,0.028-0.353,0.051-0.453c0.02-0.1,0.034-0.151,0.041-0.15c0.07-0.013-0.216,0.875,0.382,2.264
					c0.302,0.671,0.87,1.451,1.819,1.925c0.927,0.473,2.235,0.639,3.455,0.107l0.143-0.062l0.063,0.144
					c0.572,1.305,1.618,2.582,3.072,3.49c1.439,0.892,3.335,1.453,5.232,1.121c1.892-0.387,3.583-1.798,4.809-3.529
					c0.308-0.436,0.594-0.896,0.838-1.382c0.215-0.502,0.625-1.058,1.176-1.338c0.273-0.149,0.575-0.243,0.885-0.282l0.853-0.073
					c0.551-0.084,1.106-0.184,1.639-0.373c1.298-0.418,2.458-1.183,3.296-2.179c0.409-0.506,0.731-1.066,0.959-1.655
					c0.22-0.594,0.318-1.214,0.355-1.826l0.032-0.524l0.354,0.384c0.508,0.552,1.446,0.49,2.198,0.282
					c0.78-0.216,1.5-0.597,2.052-1.134c0.555-0.526,0.86-1.252,1.236-1.936c0.378-0.673,0.722-1.342,1.125-1.969
					c0.404-0.62,0.854-1.219,1.474-1.623c0.632-0.404,1.355-0.479,1.994-0.518c0.645-0.035,1.26-0.032,1.799-0.193
					c0.545-0.145,0.968-0.505,1.218-0.945c0.486-0.911,0.512-1.919,0.581-2.748c0.049-0.842,0.074-1.57,0.135-2.161
					c0.058-0.592,0.16-1.042,0.247-1.34C223.279,183.193,223.348,183.048,223.359,183.052z"/>
				<path style="fill:#7C4236;" d="M223.392,235.638c-0.45,2.968,0.841,5.876,3.662,6.903c0.978,0.356,2.128,0.283,3.061-0.178
					c1.142-0.563,2.135-1.387,2.405-2.716c0.253-1.248,0.42-2.528,0.067-3.751C230,235.746,225.98,235.788,223.392,235.638z"/>
				<g>
					<path style="fill:#263238;" d="M232.008,240.855c0.014,0.011-0.023,0.082-0.11,0.211c-0.081,0.133-0.222,0.314-0.435,0.521
						c-0.414,0.418-1.168,0.926-2.238,1.108c-1.054,0.164-2.404,0.034-3.637-0.736c-1.212-0.772-2.179-2.171-2.446-3.809
						c-0.064-0.409-0.085-0.819-0.062-1.223c0.039-0.395,0.064-0.814,0.315-1.213c0.122-0.195,0.332-0.367,0.556-0.438
						c0.222-0.074,0.431-0.078,0.617-0.079c0.36,0.011,0.714,0.021,1.06,0.032c1.376,0.067,2.603,0.205,3.631,0.308
						c2.054,0.224,3.328,0.284,3.328,0.358c0.002,0.07-1.288,0.139-3.358,0.009c-1.034-0.057-2.261-0.156-3.62-0.196
						c-0.34-0.005-0.687-0.009-1.04-0.014c-0.353,0-0.605,0.057-0.747,0.296c-0.156,0.238-0.197,0.605-0.226,0.968
						c-0.019,0.364,0.001,0.736,0.059,1.107c0.242,1.488,1.115,2.775,2.194,3.491c1.089,0.714,2.346,0.882,3.322,0.773
						c0.993-0.124,1.721-0.542,2.156-0.896C231.777,241.087,231.965,240.82,232.008,240.855z"/>
				</g>
			</g>
			<g>
				<g>
					<g>
						<path style="fill:#FF725E;" d="M292.397,206.346c0,0,12.669-1.575,31.716-16.724c19.046-15.148,29.354-36.677,31.482-36.367
							c2.128,0.31,11.87-3.144,25.984,37.146c14.114,40.29,6.276,48.598,2.75,48.193c-3.526-0.406-26.882-9.35-42.025-9.059
							c-15.143,0.292-35.136,6.285-35.136,6.285L292.397,206.346z"/>
					</g>
				</g>
				<g>
					<g>
						<polygon style="fill:#455A64;" points="269.605,236.433 276.375,234.988 272.713,226.084 266.989,228.936 						"/>
					</g>
				</g>
				<g>
					<g>
						<path style="fill:#263238;" d="M270.4,225.839l2.502,7.521l1.557,3.785c2.135,5.191,7.96,7.803,13.256,5.943l27.474-7.723
							l-11.803-34.787l-27.293,11.509C270.736,214.324,268.192,220.469,270.4,225.839z"/>
					</g>
				</g>
				<g>
					<g>
						<path style="fill:#263238;" d="M280.247,237.395l9.202,16.318l4.205-1.359l28.721,21.443l7.131-15.522
							c0,0-16.712-6.389-19.992-12.117c-3.28-5.728,0.174-7.202,0.174-7.202l-8.092-8.459L280.247,237.395z"/>
					</g>
				</g>
				<g>
					<g>
						<path style="fill:#263238;" d="M380.077,190.969c7.477,21.809,9.653,40.821,4.861,42.464
							c-4.792,1.643-14.738-14.706-22.215-36.515c-7.476-21.809-9.653-40.821-4.861-42.463
							C362.655,152.812,372.6,169.16,380.077,190.969z"/>
					</g>
				</g>
				<g>
					<g>
						<path style="fill:#FAFAFA;" d="M361.254,184.502c0,0,11.417-5.672,15.945,9.457c4.528,15.129-7.047,16.456-7.047,16.456
							C366.187,202.776,363.192,194.167,361.254,184.502z"/>
					</g>
				</g>
				<g>
					<g>
						<path style="fill:#263238;" d="M351.418,166.053c-0.064,0.005-0.004,1.009,0.16,2.824c0.173,1.813,0.412,4.443,0.805,7.682
							c0.309,1.606,0.647,3.36,1.008,5.24c0.184,0.943,0.375,1.917,0.571,2.919c0.099,0.502,0.199,1.011,0.3,1.527
							c0.114,0.513,0.278,1.021,0.419,1.542c0.588,2.078,1.205,4.258,1.844,6.517c0.161,0.565,0.323,1.135,0.487,1.709
							c0.157,0.577,0.404,1.129,0.604,1.701c0.425,1.137,0.856,2.29,1.292,3.457c0.438,1.167,0.871,2.319,1.297,3.456
							c0.224,0.563,0.402,1.142,0.66,1.681c0.254,0.541,0.506,1.078,0.756,1.609c1.002,2.124,1.969,4.174,2.89,6.128
							c0.237,0.485,0.447,0.976,0.698,1.438c0.263,0.457,0.522,0.907,0.777,1.351c0.512,0.887,1.009,1.748,1.489,2.581
							c0.963,1.657,1.862,3.203,2.685,4.619c1.827,2.694,3.371,4.828,4.43,6.308c1.067,1.475,1.682,2.273,1.735,2.237
							c0.053-0.036-0.461-0.903-1.436-2.44c-1.013-1.568-2.436-3.769-4.184-6.473c-0.786-1.423-1.645-2.976-2.565-4.642
							c-0.463-0.833-0.942-1.694-1.435-2.58c-0.247-0.443-0.498-0.892-0.752-1.347c-0.243-0.461-0.446-0.953-0.676-1.437
							c-0.9-1.948-1.844-3.992-2.822-6.11c-0.245-0.53-0.493-1.063-0.743-1.601c-0.255-0.535-0.429-1.111-0.651-1.671
							c-0.422-1.129-0.85-2.274-1.283-3.433c-0.434-1.158-0.864-2.303-1.287-3.431c-0.201-0.567-0.448-1.115-0.606-1.687
							c-0.165-0.57-0.329-1.135-0.491-1.695c-0.653-2.238-1.283-4.399-1.884-6.459c-0.145-0.516-0.314-1.019-0.434-1.527
							c-0.107-0.511-0.213-1.015-0.318-1.512c-0.21-0.993-0.414-1.959-0.612-2.892c-0.4-1.863-0.773-3.6-1.115-5.191
							c-0.457-3.18-0.828-5.769-1.093-7.613C351.664,167.041,351.482,166.048,351.418,166.053z"/>
					</g>
				</g>
				<g>
					<path style="fill:#455A64;" d="M315.189,235.364c0.008,0.035-0.432,0.173-1.236,0.391c-0.906,0.237-2.048,0.537-3.407,0.893
						c-2.879,0.744-6.849,1.795-11.222,3.001c-4.374,1.208-8.335,2.312-11.226,3.027c-1.444,0.36-2.619,0.63-3.434,0.799
						c-0.816,0.168-1.27,0.244-1.279,0.209c-0.008-0.035,0.43-0.178,1.23-0.406c0.901-0.255,2.036-0.576,3.388-0.959
						c2.966-0.842,6.867-1.949,11.182-3.173c4.378-1.208,8.369-2.204,11.273-2.857c1.452-0.327,2.63-0.578,3.449-0.733
						C314.726,235.4,315.181,235.329,315.189,235.364z"/>
				</g>
				<g>
					<path style="fill:#455A64;" d="M299.043,229.684c0.024,0.065-0.997,0.512-2.684,1.143c-1.686,0.631-4.04,1.437-6.671,2.223
						c-2.633,0.785-5.044,1.402-6.799,1.799c-1.756,0.397-2.855,0.583-2.871,0.516c-0.017-0.072,1.051-0.385,2.78-0.872
						c1.729-0.487,4.116-1.158,6.741-1.941c2.624-0.784,4.988-1.532,6.701-2.073C297.952,229.938,299.017,229.614,299.043,229.684z"
						/>
				</g>
				<g>
					<path style="fill:#455A64;" d="M294.68,221.74c0.042,0.138-3.753,1.406-8.474,2.833c-4.723,1.428-8.584,2.473-8.625,2.335
						c-0.042-0.138,3.752-1.406,8.475-2.834C290.776,222.647,294.638,221.602,294.68,221.74z"/>
				</g>
				<g>
					<path style="fill:#455A64;" d="M290.42,214.086c0.058,0.132-3.174,1.673-7.216,3.443c-4.044,1.77-7.368,3.098-7.426,2.966
						c-0.058-0.132,3.173-1.673,7.217-3.443C287.038,215.283,290.362,213.955,290.42,214.086z"/>
				</g>
			</g>
			<g>
				<path style="fill:#FF725E;" d="M259.514,300.153l-16.687-28.141l-43.127-1.781l0.045,3.922c0,0-11.847,11.914-15.663,28.146
					c-2.889,12.288,9.267,59.189,12.687,75.445c4.206,19.988,10.039,45.287,10.039,45.287c-0.866,4.479-6.617,8.105-6.22,14.086
					l95.861-1.05l-4.925-19.428L259.514,300.153z"/>
				<g>
					<path style="fill:#FFFFFF;" d="M292.766,424.085c0,0.144-19.076,0.26-42.601,0.26c-23.534,0-42.605-0.117-42.605-0.26
						s19.071-0.26,42.605-0.26C273.69,423.824,292.766,423.941,292.766,424.085z"/>
				</g>
				<g>
					<path style="fill:#FFFFFF;" d="M286.142,400.035c0,0.144-18.903,0.26-42.215,0.26c-23.32,0-42.219-0.117-42.219-0.26
						s18.898-0.26,42.219-0.26C267.239,399.775,286.142,399.891,286.142,400.035z"/>
				</g>
				<g>
					<path style="fill:#FFFFFF;" d="M279.637,373.888c0,0.144-18.499,0.26-41.314,0.26c-22.822,0-41.318-0.117-41.318-0.26
						s18.495-0.26,41.318-0.26C261.138,373.627,279.637,373.744,279.637,373.888z"/>
				</g>
				<g>
					<path style="fill:#FFFFFF;" d="M275.088,347.577c0,0.144-19.055,0.26-42.555,0.26c-23.508,0-42.559-0.117-42.559-0.26
						c0-0.144,19.051-0.26,42.559-0.26C256.034,347.317,275.088,347.434,275.088,347.577z"/>
				</g>
				<g>
					<path style="fill:#FFFFFF;" d="M265.021,314.935c0,0.144-18.03,0.26-40.267,0.26c-22.244,0-40.271-0.117-40.271-0.26
						c0-0.144,18.026-0.26,40.271-0.26C246.991,314.675,265.021,314.792,265.021,314.935z"/>
				</g>
				<g>
					<path style="fill:#FFFFFF;" d="M251.293,285.039c0,0.144-13.318,0.26-29.742,0.26c-16.43,0-29.745-0.117-29.745-0.26
						s13.315-0.26,29.745-0.26C237.975,284.778,251.293,284.895,251.293,285.039z"/>
				</g>
			</g>
			<g>
				<g>
					<path style="opacity:0.3;" d="M196.306,317.506c0,0,6.102,10.766,15.734,18.758c9.632,7.992,38.936,22.337,38.936,22.337
						l2.44-5.06l21.863,5.104l-4.05-13.453L196.306,317.506z"/>
					<path style="fill:#C17560;" d="M299.146,282.004l-7.622,41.437l-65.364-31.072l-10.532,36.856
						c25.687,12.563,77.693,33.476,84.387,32.871c9.517-0.86,16.093-6.544,19.056-20.487c1.834-8.628,0.967-66.502,0.967-66.502
						L299.146,282.004z"/>
					<g>
						<path style="fill:#FF725E;" d="M230.435,286.8c0,0-24.447-15.102-35.109,3.928c-7.62,18.558,0.813,33.381,19.632,42.585
							c9.074,4.438,21.432,9.918,33.917,15.123l18.188-40.363L230.435,286.8z"/>
						<g>
							<path style="fill:#263238;" d="M230.435,286.8c0,0,0.234,0.112,0.673,0.355c0.455,0.256,1.102,0.62,1.939,1.091
								c1.713,0.98,4.201,2.403,7.381,4.222c6.391,3.687,15.558,8.976,26.738,15.426l0.161,0.093l-0.077,0.17
								c-5.181,11.533-11.383,25.338-18.143,40.383l-0.102,0.226l-0.229-0.095c-6.399-2.665-12.999-5.497-19.712-8.503
								c-2.974-1.332-5.907-2.672-8.791-4.025c-2.884-1.352-5.72-2.706-8.456-4.193c-1.347-0.773-2.671-1.571-3.948-2.412
								c-1.241-0.897-2.522-1.72-3.652-2.721c-2.375-1.858-4.395-4.055-6.189-6.33c-0.416-0.595-0.831-1.186-1.243-1.775
								c-0.439-0.571-0.722-1.237-1.087-1.846c-0.751-1.213-1.22-2.547-1.774-3.82c-0.239-0.651-0.403-1.325-0.605-1.98
								l-0.289-0.984c-0.081-0.331-0.123-0.669-0.186-1.002c-0.115-0.667-0.23-1.33-0.343-1.989
								c-0.06-0.664-0.083-1.329-0.125-1.986c-0.142-1.316,0.035-2.612,0.075-3.889c0.101-1.273,0.372-2.508,0.545-3.733
								c0.316-1.196,0.61-2.378,0.94-3.526c0.408-1.123,0.81-2.226,1.203-3.309l0.003-0.009l0.007-0.013
								c1.515-2.679,3.501-4.941,5.784-6.547c2.295-1.596,4.849-2.467,7.267-2.862c4.894-0.696,9.147,0.238,12.436,1.211
								c3.308,1.015,5.753,2.164,7.378,2.988c0.812,0.417,1.419,0.759,1.823,0.997C230.24,286.657,230.435,286.8,230.435,286.8
								s-0.215-0.108-0.626-0.331c-0.413-0.22-1.028-0.544-1.846-0.944c-1.638-0.788-4.091-1.9-7.39-2.877
								c-3.279-0.936-7.509-1.825-12.321-1.11c-2.377,0.404-4.872,1.271-7.109,2.843c-2.225,1.582-4.161,3.803-5.641,6.444
								l0.01-0.022c-0.386,1.074-0.779,2.168-1.179,3.281c-0.322,1.137-0.608,2.306-0.917,3.489
								c-0.166,1.21-0.431,2.429-0.526,3.684c-0.035,1.258-0.207,2.536-0.063,3.829c0.044,0.646,0.068,1.299,0.128,1.953
								c0.114,0.647,0.228,1.298,0.343,1.954c0.063,0.327,0.103,0.659,0.184,0.984l0.287,0.966c0.201,0.643,0.363,1.304,0.599,1.943
								c0.549,1.249,1.009,2.559,1.752,3.749c0.361,0.598,0.639,1.251,1.072,1.813c0.407,0.578,0.816,1.16,1.227,1.745
								c1.772,2.237,3.766,4.401,6.117,6.236c1.117,0.988,2.387,1.801,3.616,2.688c1.266,0.831,2.579,1.621,3.915,2.387
								c2.708,1.469,5.546,2.822,8.427,4.171c2.881,1.35,5.812,2.688,8.783,4.019c6.707,3.003,13.303,5.837,19.695,8.507
								l-0.331,0.131c6.793-15.03,13.025-28.821,18.232-40.343l0.085,0.263c-11.143-6.515-20.28-11.857-26.65-15.582
								c-3.156-1.861-5.625-3.316-7.325-4.319c-0.824-0.493-1.46-0.874-1.908-1.143C230.647,286.948,230.435,286.8,230.435,286.8z"
								/>
						</g>
					</g>
					<g>
						<g>
							<path style="fill:#C17560;" d="M298.169,289.097l1.474-15.439c0,0-5.899-11.882-5.785-13.071
								c0.114-1.19,0.461-7.735,0.461-7.735l14.75-13.277c0,0,4.777,0,4.898,4.727c0,0,4.598-0.968,4.659,4.538
								c0,0,4.975,0.183,5.105,4.208l0,0c0,0,2.999-0.396,2.895,3.809c-0.075,3.024-1.395,14.615-1.395,14.615l-6.169,10.729
								l-0.508,10.73L298.169,289.097z"/>
						</g>
					</g>
					<g>
						<path style="fill:#7C4236;" d="M299.697,338.585c-0.169,0.057-1.256-3.691-3.491-7.897c-2.232-4.213-4.817-7.138-4.682-7.247
							c0.048-0.042,0.749,0.638,1.745,1.861c0.995,1.222,2.26,3.012,3.396,5.141c1.132,2.13,1.921,4.171,2.406,5.669
							C299.555,337.612,299.759,338.566,299.697,338.585z"/>
					</g>
				</g>
				<g>
					<path style="fill:#FFFFFF;" d="M215.628,281.674c0.032,0.017-0.201,0.516-0.65,1.403c-0.447,0.888-1.117,2.16-1.962,3.724
						c-1.687,3.128-4.093,7.407-6.791,12.108c-2.681,4.659-5.105,8.872-6.922,12.03c-0.853,1.475-1.561,2.7-2.106,3.641
						c-0.503,0.857-0.796,1.323-0.827,1.306c-0.032-0.017,0.201-0.516,0.649-1.403c0.447-0.888,1.117-2.16,1.962-3.724
						c1.687-3.128,4.093-7.408,6.792-12.11c2.68-4.657,5.104-8.87,6.921-12.028c0.853-1.475,1.562-2.7,2.106-3.642
						C215.303,282.123,215.596,281.657,215.628,281.674z"/>
				</g>
				<g>
					<path style="fill:#FFFFFF;" d="M235.557,290.403c0.016,0.008-0.039,0.163-0.159,0.451c-0.15,0.342-0.331,0.754-0.549,1.25
						c-0.485,1.082-1.214,2.635-2.134,4.544c-1.84,3.818-4.478,9.049-7.555,14.739c-3.08,5.691-6.014,10.762-8.202,14.392
						c-1.094,1.815-1.995,3.275-2.634,4.273c-0.296,0.454-0.542,0.831-0.746,1.143c-0.176,0.258-0.275,0.39-0.29,0.38
						c-0.015-0.009,0.054-0.159,0.201-0.435c0.181-0.326,0.399-0.72,0.662-1.194c0.629-1.1,1.47-2.571,2.491-4.355
						c2.106-3.675,4.985-8.769,8.062-14.453c3.073-5.684,5.759-10.881,7.683-14.655c0.935-1.831,1.705-3.339,2.282-4.468
						c0.253-0.479,0.463-0.878,0.637-1.207C235.454,290.535,235.541,290.395,235.557,290.403z"/>
				</g>
				<g>
					<path style="fill:#FFFFFF;" d="M257.855,302.882c0.033,0.014-0.183,0.602-0.601,1.653c-0.415,1.053-1.054,2.561-1.878,4.41
						c-1.645,3.698-4.086,8.737-7.092,14.135c-3.012,5.397-6.016,10.123-8.297,13.466c-1.14,1.673-2.086,3.009-2.764,3.916
						c-0.674,0.909-1.061,1.401-1.09,1.38c-0.029-0.021,0.301-0.553,0.924-1.496c0.666-1.017,1.551-2.368,2.623-4.003
						c2.199-3.39,5.144-8.133,8.149-13.516c2.999-5.384,5.485-10.383,7.212-14.035c0.828-1.772,1.512-3.235,2.026-4.336
						C257.544,303.429,257.822,302.868,257.855,302.882z"/>
				</g>
			</g>
		</g>
		<polygon style="fill:#263238;" points="199.746,455.618 201.83,437.105 293.278,436.103 295.61,455.618 		"/>
		<g>
			<path style="fill:#455A64;" d="M312.999,453.98c0,0.144-28.172,0.26-62.917,0.26c-34.756,0-62.923-0.117-62.923-0.26
				c0-0.144,28.166-0.26,62.923-0.26C284.827,453.72,312.999,453.837,312.999,453.98z"/>
		</g>
		<g>
			<path style="fill:#455A64;" d="M262.04,136.564h-34.021c-1.124,0-2.036-0.911-2.036-2.035v-1.48c0-1.124,0.911-2.035,2.036-2.035
				h34.021c1.124,0,2.035,0.911,2.035,2.035v1.48C264.076,135.652,263.165,136.564,262.04,136.564z"/>
			<path style="fill:#455A64;" d="M273.307,133.788c0,1.533-1.242,2.775-2.775,2.775s-2.775-1.243-2.775-2.775
				c0-1.533,1.243-2.775,2.775-2.775S273.307,132.255,273.307,133.788z"/>
		</g>
		<path style="fill:#263238;" d="M160.331,220.495h-2.254c-3.424,0-6.2-2.776-6.2-6.2v-34.004c0-3.424,2.776-6.2,6.2-6.2h2.254
			V220.495z"/>
		<path style="fill:#263238;" d="M159.772,287.919h-2.254c-3.424,0-6.2-2.776-6.2-6.2v-34.004c0-3.424,2.776-6.2,6.2-6.2h2.254
			V287.919z"/>
		<g>
			<path style="fill:#FF725E;" d="M157.677,159.834c0,50.15,0,100.299,0,150.449"/>
			<g>
				<path style="fill:#455A64;" d="M157.677,310.283c-0.144,0-0.26-33.682-0.26-75.221c0-41.553,0.117-75.228,0.26-75.228
					s0.26,33.675,0.26,75.228C157.938,276.601,157.821,310.283,157.677,310.283z"/>
			</g>
		</g>
	</g>
</g>
<g id="Character_1">
	<g>
		<path style="fill:#FFFFFF;" d="M126.424,364.31H30.04c-6.301,0-11.409-5.108-11.409-11.409v-73.967
			c0-6.301,5.108-11.409,11.409-11.409h96.384c6.301,0,11.409,5.108,11.409,11.409v73.967
			C137.832,359.203,132.725,364.31,126.424,364.31z"/>
		<path style="fill:#FF725E;" d="M83.021,361.348c1.223,2.963,24.867,25.184,24.867,25.184v-25.184H83.021z"/>
		<path style="fill:#263238;" d="M99.631,289.016c-1.149-3.777-3.885-7.042-7.402-8.836c-3.864-1.97-8.468-2.138-12.695-1.166
			c-4.227,0.972-8.134,3.01-11.824,5.288c-2.071,1.278-4.132,2.677-5.591,4.625c-2.663,3.554-5.231,9.34-5.371,13.78
			c-0.113,3.59,1.515,12.522,3.123,15.733c0.572,1.143,1.913,2.154,3.525,3.005c1.735,3.166,4.005,6.037,6.736,8.401
			c0.762-2.43,1.524-4.86,2.286-7.29L99.631,289.016z"/>
		<path style="fill:#263238;" d="M97.439,284.656l-7.099-1.061c4.123,9.084,5.77,30.081,8.256,39.742
			c2.495-3.852,8.213-15.53,7.759-20.097C105.902,298.673,105.809,283.637,97.439,284.656z"/>
		<path style="fill:#FFBF9D;" d="M64.391,300.917c0.227-5.383,3.578-9.888,8.758-11.368l16.146-4.614
			c7.007-0.96,11.948,7.553,12.61,14.595c0.735,7.824,1.286,16.086,0.537,21.963c-1.506,11.818-10.474,13.592-10.474,13.592
			c-0.002-0.017,0.158,5.596,0.25,9.031l-2.631,15.394l-21.29-18.175l-3.944-40.276C64.343,300.86,64.38,301.185,64.391,300.917z"/>
		<path style="fill:#263238;" d="M98.353,309.316c0.053,0.796-0.577,1.496-1.408,1.567c-0.828,0.07-1.544-0.516-1.597-1.312
			c-0.052-0.796,0.578-1.497,1.406-1.567C97.585,307.934,98.3,308.521,98.353,309.316z"/>
		<path style="fill:#263238;" d="M100.271,304.189c-0.181,0.203-1.35-0.608-2.972-0.554c-1.622,0.031-2.787,0.903-2.97,0.709
			c-0.089-0.085,0.091-0.446,0.598-0.84c0.499-0.392,1.359-0.784,2.37-0.811c1.011-0.026,1.873,0.32,2.373,0.686
			C100.181,303.747,100.361,304.098,100.271,304.189z"/>
		<path style="fill:#263238;" d="M83.733,309.317c0.053,0.796-0.578,1.496-1.408,1.566c-0.828,0.07-1.544-0.516-1.597-1.312
			c-0.053-0.796,0.578-1.497,1.406-1.567C82.965,307.934,83.681,308.521,83.733,309.317z"/>
		<path style="fill:#263238;" d="M84.857,304.629c-0.182,0.202-1.352-0.608-2.974-0.554c-1.622,0.031-2.787,0.902-2.969,0.709
			c-0.089-0.085,0.089-0.446,0.598-0.84c0.499-0.392,1.358-0.785,2.369-0.811c1.011-0.025,1.873,0.321,2.374,0.686
			C84.764,304.188,84.945,304.538,84.857,304.629z"/>
		<path style="fill:#263238;" d="M90.295,317.232c-0.01-0.092,0.993-0.297,2.622-0.557c0.413-0.056,0.803-0.15,0.864-0.435
			c0.089-0.302-0.098-0.744-0.314-1.22c-0.421-0.991-0.861-2.03-1.323-3.118c-1.84-4.441-3.186-8.098-3.007-8.17
			c0.179-0.073,1.817,3.468,3.657,7.909c0.444,1.095,0.868,2.139,1.272,3.138c0.171,0.466,0.458,0.992,0.265,1.62
			c-0.102,0.313-0.399,0.547-0.663,0.627c-0.263,0.089-0.496,0.101-0.701,0.119C91.324,317.286,90.304,317.324,90.295,317.232z"/>
		<path style="fill:#FF9A6C;" d="M76.249,331.346c0,0,4.058,7.97,15.795,6.507l-0.076-2.767
			C91.969,335.086,84.233,335.816,76.249,331.346z"/>
		<path style="fill:#263238;" d="M84.18,298.778c-0.146,0.446-1.774,0.287-3.67,0.575c-1.903,0.25-3.421,0.855-3.686,0.467
			c-0.119-0.186,0.136-0.609,0.744-1.056c0.602-0.445,1.572-0.881,2.711-1.044c1.139-0.16,2.192-0.011,2.894,0.25
			C83.879,298.231,84.242,298.567,84.18,298.778z"/>
		<path style="fill:#263238;" d="M99.6,299.239c-0.274,0.377-1.404,0.029-2.749,0.052c-1.346-0.024-2.476,0.324-2.749-0.053
			c-0.121-0.184,0.047-0.558,0.534-0.923c0.48-0.363,1.291-0.672,2.215-0.673c0.925,0.001,1.735,0.311,2.215,0.674
			C99.553,298.681,99.721,299.055,99.6,299.239z"/>
		<path style="fill:#263238;" d="M98.404,288.88c-0.77-1.749-2.742-2.757-4.653-2.799c-1.911-0.042-3.754,0.733-5.38,1.737
			c-6.889,4.249-10.21,14.131-17.012,18.518c-1.673,1.079-3.915,0.198-5.324,1.604c-1.409,1.406-2.286,3.614-1.433,5.412
			c-0.966-1.249-1.946-2.521-2.517-3.993c-0.571-1.472-0.687-3.2,0.063-4.59c0.569-1.055,1.604-1.877,1.862-3.048
			c0.226-1.03-0.208-2.088-0.194-3.142c0.014-1.073,0.491-2.082,0.992-3.031c2.574-4.872,6.18-9.315,10.906-12.149
			c3.088-1.852,6.646-2.984,10.246-2.964c3.6,0.02,7.23,1.239,9.932,3.618C97.481,285.451,99.151,286.898,98.404,288.88"/>
		<g>
			<g>
				<path style="fill:#FFBF9D;" d="M66.245,309.393c-0.133-0.334-6.332-2.373-6.227,4.15c0.102,6.338,6.459,4.908,6.467,4.726
					C66.492,318.087,66.245,309.393,66.245,309.393z"/>
			</g>
		</g>
		<g>
			<g>
				<g>
					<path style="fill:#FF9A6C;" d="M64.483,315.906c-0.028-0.019-0.109,0.08-0.294,0.169c-0.18,0.087-0.492,0.15-0.825,0.033
						c-0.674-0.233-1.258-1.285-1.311-2.427c-0.027-0.576,0.083-1.128,0.279-1.586c0.185-0.467,0.478-0.797,0.814-0.863
						c0.334-0.084,0.577,0.113,0.657,0.29c0.088,0.176,0.051,0.303,0.084,0.313c0.018,0.016,0.134-0.109,0.078-0.369
						c-0.029-0.126-0.106-0.274-0.257-0.392c-0.154-0.121-0.379-0.18-0.613-0.15c-0.488,0.043-0.919,0.501-1.135,1.005
						c-0.242,0.506-0.379,1.126-0.349,1.774c0.065,1.276,0.742,2.459,1.663,2.706c0.448,0.108,0.817-0.034,1.007-0.187
						C64.475,316.059,64.506,315.917,64.483,315.906z"/>
				</g>
			</g>
		</g>
		<path style="fill:#FFFFFF;" d="M63.632,306.209c0.005,0.008,0.135-0.069,0.376-0.224c0.238-0.161,0.606-0.377,1.043-0.706
			c0.867-0.665,2.066-1.715,3.331-3.211c1.273-1.488,2.596-3.41,4.028-5.553c1.435-2.138,3.01-4.505,5.043-6.66
			c1.036-1.053,2.13-2.004,3.297-2.762c1.164-0.764,2.39-1.336,3.597-1.758c2.417-0.854,4.755-1.093,6.688-1.016
			c1.941,0.066,3.485,0.434,4.521,0.753c0.525,0.143,0.915,0.307,1.186,0.401c0.27,0.097,0.414,0.144,0.418,0.135
			c0.004-0.009-0.132-0.074-0.396-0.189c-0.265-0.112-0.65-0.294-1.174-0.455c-1.032-0.354-2.584-0.757-4.546-0.85
			c-1.954-0.105-4.326,0.115-6.784,0.968c-1.228,0.421-2.477,0.998-3.663,1.771c-1.191,0.768-2.303,1.733-3.353,2.8
			c-2.058,2.181-3.632,4.566-5.055,6.712c-1.42,2.152-2.718,4.075-3.963,5.569c-1.236,1.502-2.403,2.565-3.244,3.253
			c-0.424,0.34-0.78,0.57-1.006,0.746C63.746,306.106,63.627,306.2,63.632,306.209z"/>
		<path style="fill:#263238;" d="M65.276,307.956c-0.05,1.733-0.077,3.563,0.766,5.077c0.843,1.515,2.889,2.503,4.37,1.6
			c1.207-0.736,1.53-2.319,1.698-3.723c0.486-4.052,0.644-8.139,1.165-12.187L65.276,307.956z"/>
		<path style="fill:#455A64;" d="M96.758,285.91c-0.006,0.037-0.563-0.09-1.579-0.093c-1.01,0.002-2.498,0.178-4.171,0.886
			c-0.833,0.352-1.718,0.814-2.588,1.427c-0.872,0.612-1.758,1.341-2.651,2.146c-1.773,1.622-3.601,3.565-5.142,5.87
			c-0.772,1.153-1.452,2.335-2.194,3.433c-0.734,1.101-1.558,2.1-2.458,2.928c-1.796,1.653-3.661,2.828-5.251,3.734
			c-1.596,0.903-2.934,1.542-3.857,1.983c-0.436,0.201-0.791,0.364-1.07,0.492c-0.247,0.109-0.379,0.16-0.384,0.149
			c-0.006-0.011,0.116-0.084,0.352-0.214c0.272-0.144,0.616-0.327,1.04-0.552c0.903-0.479,2.221-1.151,3.793-2.077
			c1.566-0.929,3.398-2.116,5.154-3.757c0.874-0.816,1.671-1.793,2.393-2.883c0.728-1.086,1.406-2.27,2.187-3.436
			c1.564-2.339,3.417-4.292,5.218-5.916c0.909-0.807,1.807-1.533,2.703-2.146c0.895-0.616,1.804-1.074,2.66-1.418
			c1.719-0.692,3.243-0.832,4.268-0.791c0.515,0.019,0.912,0.076,1.177,0.13C96.623,285.864,96.76,285.898,96.758,285.91z"/>
		<path style="fill:#FFFFFF;" d="M64.99,304.048c0.011,0.018-0.184,0.157-0.549,0.394c-0.427,0.267-0.952,0.596-1.578,0.988
			c-0.171,0.105-0.348,0.213-0.532,0.325c-0.198,0.116-0.418,0.22-0.687,0.249c-0.132,0.011-0.29,0.004-0.432-0.089
			c-0.141-0.089-0.234-0.245-0.249-0.411c-0.022-0.332,0.149-0.582,0.276-0.81c0.545-0.93,1.143-1.951,1.777-3.035l0.258,0.226
			c-0.581,0.457-1.263,0.828-2.007,1.073c-0.747,0.247-1.518,0.354-2.26,0.332c-0.182-0.001-0.387-0.02-0.578-0.082
			c-0.187-0.06-0.406-0.18-0.504-0.414c-0.101-0.229-0.019-0.487,0.088-0.643c0.106-0.166,0.239-0.29,0.35-0.407
			c0.916-0.938,1.594-1.918,2.08-2.783c0.968-1.743,1.222-2.979,1.289-2.957c0.02,0.005-0.024,0.314-0.175,0.858
			c-0.156,0.541-0.423,1.32-0.892,2.218c-0.466,0.897-1.138,1.916-2.065,2.891c-0.23,0.23-0.457,0.495-0.36,0.691
			c0.081,0.197,0.444,0.285,0.777,0.278c0.701,0.017,1.431-0.087,2.139-0.321c0.705-0.233,1.351-0.581,1.903-1.01l0.741-0.575
			l-0.483,0.802c-0.648,1.075-1.259,2.088-1.816,3.012c-0.14,0.223-0.265,0.444-0.252,0.626c0.013,0.18,0.17,0.281,0.373,0.259
			c0.41-0.033,0.774-0.323,1.125-0.502c0.646-0.356,1.189-0.655,1.63-0.898C64.764,304.132,64.979,304.029,64.99,304.048z"/>
		<path style="fill:#FF9A6C;" d="M84.206,320.402c0.188-0.972,1.155-1.741,2.143-1.671c0.725,0.052,1.391,0.523,1.737,1.162
			c0.346,0.639,0.382,1.424,0.157,2.116l-0.03,0.153c-0.644,0.753-1.787,1.043-2.698,0.655
			C84.604,322.429,84.019,321.374,84.206,320.402z"/>
		<path style="fill:#263238;" d="M89.391,322.162c-0.005-0.247-1.644-0.121-2.917-1.433c-1.277-1.309-1.23-3.071-1.46-3.065
			c-0.105-0.015-0.288,0.414-0.25,1.153c0.032,0.725,0.347,1.763,1.126,2.566c0.781,0.8,1.762,1.093,2.438,1.096
			C89.018,322.488,89.41,322.274,89.391,322.162z"/>
		<path style="fill:#FF725E;" d="M115.582,352.625l-0.186-0.236c-8.193-8.67-23.273-11.573-23.273-11.573s-0.922,5.676-9.376,6.31
			c-8.453,0.634-14.663-7.977-14.663-7.977l-11.278,1.579c0,0-5.677,0.669-9.211,2.748c-7.96,4.683-12.185,20.834-12.185,20.834
			l86.973,0.35L115.582,352.625z"/>
		<g>
			<path style="fill:#263238;" d="M123.535,267.526c0,0,0.205-0.003,0.609,0.011c0.405,0.004,1.008,0.029,1.793,0.167
				c1.545,0.264,3.929,0.863,6.379,2.758c1.214,0.937,2.435,2.181,3.437,3.785c1.001,1.597,1.775,3.557,2.064,5.768
				c0.141,1.107,0.137,2.263,0.134,3.444c0.003,1.185,0.005,2.411,0.008,3.675c0.005,2.529,0.01,5.213,0.016,8.046
				c0.015,11.335,0.034,25.047,0.055,40.684c0.004,3.91,0.008,7.94,0.011,12.084c-0.004,1.037,0.025,2.073-0.051,3.143
				c-0.066,1.064-0.284,2.119-0.575,3.159c-0.625,2.069-1.754,4.007-3.255,5.632c-1.494,1.636-3.399,2.931-5.53,3.715l-0.801,0.291
				l-0.828,0.214c-0.548,0.167-1.12,0.221-1.686,0.315c-1.145,0.136-2.295,0.128-3.43,0.122c-4.569,0.003-9.237,0.005-13.998,0.008
				l0.237-0.237c0.003,7.021,0.007,14.526,0.01,22.221l0,0.573l-0.417-0.393c-3.682-3.469-7.432-7.052-11.222-10.741
				c-3.777-3.701-7.637-7.458-11.335-11.488l0.19,0.085c-11.819,0.001-24.158,0.002-36.744,0.004c-3.787,0-7.551,0-11.291,0l-2.8,0
				c-0.929,0.007-1.861,0.004-2.811-0.062c-1.884-0.157-3.729-0.686-5.399-1.543c-3.351-1.703-5.956-4.734-7.139-8.239
				c-0.615-1.744-0.812-3.616-0.794-5.421c0-1.801,0.001-3.594,0.001-5.379c0.005-14.282,0.01-28.059,0.015-41.182
				c0.004-6.562,0.007-12.96,0.011-19.177c-0.004-1.542-0.013-3.125,0.296-4.655c0.329-1.522,0.887-2.977,1.644-4.307
				c0.745-1.34,1.738-2.517,2.851-3.527c1.116-1.006,2.366-1.861,3.726-2.453c1.352-0.592,2.771-1.038,4.221-1.189
				c1.454-0.163,2.878-0.112,4.283-0.118c2.815,0.003,5.579,0.005,8.287,0.008c5.417,0.006,10.616,0.012,15.578,0.017
				c19.842,0.035,35.9,0.063,47.011,0.083c5.542,0.021,9.848,0.038,12.781,0.049c1.453,0.011,2.564,0.02,3.324,0.026
				C123.152,267.508,123.535,267.526,123.535,267.526s-0.384,0.018-1.132,0.027c-0.76,0.006-1.871,0.015-3.324,0.026
				c-2.933,0.011-7.239,0.028-12.781,0.049c-11.111,0.02-27.169,0.048-47.011,0.083c-4.962,0.005-10.161,0.011-15.578,0.017
				c-2.709,0.003-5.472,0.005-8.287,0.008c-1.409,0.007-2.835-0.038-4.231,0.122c-1.407,0.148-2.782,0.585-4.093,1.161
				c-1.318,0.575-2.529,1.408-3.61,2.385c-1.078,0.981-2.04,2.124-2.759,3.424c-0.732,1.291-1.27,2.701-1.587,4.176
				c-0.296,1.483-0.287,3.003-0.28,4.565c0.003,6.217,0.007,12.616,0.011,19.177c0.005,13.124,0.01,26.9,0.015,41.182
				c0,1.785,0.001,3.578,0.001,5.379c-0.015,1.792,0.175,3.562,0.769,5.254c1.141,3.379,3.656,6.303,6.888,7.944
				c1.61,0.826,3.389,1.335,5.206,1.486c0.904,0.063,1.833,0.067,2.767,0.06l2.8,0c3.74,0,7.504,0,11.291,0
				c12.586,0.001,24.925,0.003,36.744,0.004h0.113l0.078,0.085c3.676,4.01,7.537,7.771,11.307,11.47
				c3.785,3.687,7.532,7.273,11.208,10.742l-0.417,0.18c0.004-7.694,0.007-15.199,0.011-22.221l0-0.237l0.237,0
				c4.76,0.003,9.429,0.006,13.998,0.008c1.148,0.008,2.276,0.015,3.375-0.114c0.548-0.091,1.103-0.141,1.633-0.303l0.802-0.205
				l0.776-0.281c2.065-0.757,3.915-2.009,5.366-3.594c1.458-1.575,2.556-3.453,3.166-5.459c0.284-1.008,0.498-2.032,0.563-3.065
				c0.076-1.026,0.05-2.078,0.056-3.112c0.004-4.144,0.008-8.174,0.011-12.084c0.021-15.637,0.04-29.349,0.055-40.684
				c0.006-2.833,0.011-5.517,0.016-8.046c0.003-1.264,0.006-2.489,0.008-3.675c0.008-1.188,0.018-2.33-0.115-3.416
				c-0.273-2.178-1.025-4.114-2.003-5.697c-0.979-1.589-2.177-2.827-3.371-3.764c-2.41-1.895-4.767-2.514-6.3-2.801
				c-0.778-0.15-1.378-0.187-1.781-0.204C123.74,267.55,123.535,267.526,123.535,267.526z"/>
		</g>
	</g>
</g>
<g id="Character_4">
	<g>
		<path style="fill:#FFFFFF;" d="M352.616,388.845h113.586c6.329,0,11.46-5.131,11.46-11.46V289.47c0-6.329-5.131-11.46-11.46-11.46
			H352.616c-6.329,0-11.46,5.131-11.46,11.46v87.914C341.155,383.714,346.286,388.845,352.616,388.845z"/>
		<path style="fill:#455A64;" d="M403.924,385.452c-1.4,3.393-28.477,28.84-28.477,28.84v-28.84H403.924z"/>
		<g>
			<g>
				<g>
					<g>
						<g>
							<g>
								<g>
									<g>
										<g>
											<g>
												<g>
													<g>
														<g>
															<g>
																<g>
																	<g>
																		<g>
																			<g>
																				<g>
																					<path style="fill:#FFBF9D;" d="M393.445,362.244c0.005-3.501,0.002-6.42-0.021-6.779
																						c0,0-11.838-1.119-12.687-12.837c-0.41-5.662-0.306-17.394-0.088-28.006
																						c0.234-11.397,9.194-20.699,20.573-21.382l1.131-0.068c12.243-0.02,19.099,10.366,18.78,22.605l-0.429,45.937
																						l-19.807,15.903l-1.434-0.128L393.445,362.244z"/>
																				</g>
																			</g>
																		</g>
																	</g>
																</g>
															</g>
														</g>
													</g>
												</g>
											</g>
										</g>
									</g>
								</g>
							</g>
						</g>
					</g>
				</g>
			</g>
			<g>
				<g>
					<g>
						<g>
							<g>
								<g>
									<g>
										<g>
											<g>
												<g>
													<g>
														<g>
															<g>
																<g>
																	<g>
																		<g>
																			<g>
																				<g>
																					<path style="fill:#FF9A6C;" d="M393.424,355.464c0,0,7.417-0.01,14.997-5.431c0,0-3.21,8.789-14.974,8.435
																						L393.424,355.464z"/>
																				</g>
																			</g>
																		</g>
																	</g>
																</g>
															</g>
														</g>
													</g>
												</g>
											</g>
										</g>
									</g>
								</g>
							</g>
						</g>
					</g>
				</g>
			</g>
			<g>
				<g>
					<g>
						<g>
							<g>
								<g>
									<g>
										<g>
											<g>
												<g>
													<g>
														<g>
															<g>
																<g>
																	<g>
																		<g>
																			<g>
																				<g>
																					<g>
																						<g>
																							<g>
																								<g>
																									<path style="fill:#263238;" d="M400.598,319.676c0.229,0.24,1.595-0.831,3.557-0.858
																										c1.959-0.057,3.413,0.954,3.623,0.704c0.103-0.111-0.134-0.547-0.767-1.004
																										c-0.624-0.456-1.683-0.891-2.905-0.865c-1.222,0.028-2.243,0.505-2.827,0.987
																										C400.683,319.125,400.485,319.569,400.598,319.676z"/>
																								</g>
																							</g>
																						</g>
																					</g>
																				</g>
																			</g>
																		</g>
																	</g>
																</g>
															</g>
														</g>
													</g>
												</g>
											</g>
										</g>
									</g>
								</g>
							</g>
						</g>
					</g>
				</g>
			</g>
			<g>
				<g>
					<g>
						<g>
							<g>
								<g>
									<g>
										<g>
											<g>
												<g>
													<g>
														<g>
															<g>
																<g>
																	<g>
																		<g>
																			<g>
																				<g>
																					<g>
																						<g>
																							<g>
																								<path style="fill:#263238;" d="M402.047,325.037c0.021,0.838,0.747,1.512,1.623,1.506
																									c0.874-0.006,1.567-0.688,1.547-1.526c-0.021-0.838-0.747-1.513-1.622-1.507
																									C402.719,323.515,402.026,324.199,402.047,325.037z"/>
																							</g>
																						</g>
																					</g>
																				</g>
																			</g>
																		</g>
																	</g>
																</g>
															</g>
														</g>
													</g>
												</g>
											</g>
										</g>
									</g>
								</g>
							</g>
						</g>
					</g>
				</g>
			</g>
			<g>
				<g>
					<g>
						<g>
							<g>
								<g>
									<g>
										<g>
											<g>
												<g>
													<g>
														<g>
															<g>
																<g>
																	<g>
																		<g>
																			<g>
																				<g>
																					<g>
																						<g>
																							<g>
																								<path style="fill:#263238;" d="M395.509,333.254c0.003-0.103-1.129-0.229-2.958-0.352
																									c-0.463-0.02-0.904-0.085-1-0.394c-0.129-0.326,0.034-0.834,0.225-1.382
																									c0.366-1.139,0.748-2.334,1.15-3.586c1.59-5.102,2.712-9.286,2.506-9.348
																									c-0.206-0.062-1.662,4.023-3.252,9.125c-0.381,1.257-0.746,2.456-1.092,3.603
																									c-0.142,0.533-0.406,1.145-0.13,1.82c0.145,0.336,0.497,0.565,0.797,0.627
																									c0.301,0.072,0.56,0.062,0.788,0.062C394.375,333.416,395.509,333.357,395.509,333.254z"/>
																							</g>
																						</g>
																					</g>
																				</g>
																			</g>
																		</g>
																	</g>
																</g>
															</g>
														</g>
													</g>
												</g>
											</g>
										</g>
									</g>
								</g>
							</g>
						</g>
					</g>
				</g>
			</g>
			<g>
				<g>
					<g>
						<g>
							<g>
								<g>
									<g>
										<g>
											<g>
												<g>
													<g>
														<g>
															<g>
																<g>
																	<g>
																		<g>
																			<g>
																				<path style="fill:#263238;" d="M401.575,313.384c0.184,0.438,1.758,0.13,3.636,0.251
																					c1.881,0.081,3.419,0.555,3.642,0.14c0.099-0.199-0.189-0.603-0.822-0.999c-0.629-0.396-1.615-0.748-2.742-0.81
																					c-1.127-0.059-2.141,0.186-2.803,0.512C401.818,312.804,401.494,313.176,401.575,313.384z"/>
																			</g>
																		</g>
																	</g>
																</g>
															</g>
														</g>
													</g>
												</g>
											</g>
										</g>
									</g>
								</g>
							</g>
						</g>
					</g>
				</g>
			</g>
			<g>
				<g>
					<g>
						<g>
							<g>
								<g>
									<g>
										<g>
											<g>
												<g>
													<g>
														<g>
															<g>
																<g>
																	<g>
																		<g>
																			<g>
																				<path style="fill:#263238;" d="M383.179,314.499c0.201,0.357,1.736-0.017,3.591-0.05
																					c1.856-0.067,3.391,0.224,3.592-0.144c0.088-0.176-0.214-0.497-0.856-0.787
																					c-0.637-0.29-1.624-0.518-2.737-0.488c-1.112,0.031-2.099,0.312-2.735,0.636
																					C383.391,313.99,383.09,314.328,383.179,314.499z"/>
																			</g>
																		</g>
																	</g>
																</g>
															</g>
														</g>
													</g>
												</g>
											</g>
										</g>
									</g>
								</g>
							</g>
						</g>
					</g>
				</g>
			</g>
			<g>
				<g>
					<g>
						<g>
							<g>
								<g>
									<g>
										<g>
											<g>
												<g>
													<g>
														<g>
															<g>
																<path style="fill:#FFBF9D;" d="M420.698,324.516c0.195-0.098,7.914-2.867,8.139,5.165
																	c0.225,8.032-7.885,6.602-7.905,6.371C420.911,335.823,420.698,324.516,420.698,324.516z"/>
															</g>
														</g>
													</g>
												</g>
											</g>
										</g>
									</g>
								</g>
							</g>
						</g>
					</g>
				</g>
			</g>
			<g>
				<g>
					<g>
						<g>
							<g>
								<g>
									<g>
										<g>
											<g>
												<g>
													<g>
														<g>
															<g>
																<g>
																	<path style="fill:#FF9A6C;" d="M423.299,332.941c0.035-0.027,0.143,0.094,0.382,0.196
																		c0.234,0.099,0.632,0.161,1.047-0.008c0.84-0.335,1.516-1.702,1.515-3.151c0-0.731-0.173-1.423-0.448-1.992
																		c-0.262-0.581-0.653-0.98-1.083-1.044c-0.428-0.086-0.723,0.178-0.815,0.406c-0.101,0.228-0.046,0.386-0.088,0.402
																		c-0.022,0.021-0.176-0.13-0.121-0.463c0.029-0.16,0.117-0.353,0.302-0.512c0.189-0.162,0.47-0.25,0.768-0.226
																		c0.621,0.025,1.194,0.579,1.497,1.204c0.337,0.627,0.548,1.404,0.548,2.225c-0.006,1.62-0.792,3.158-1.944,3.526
																		c-0.561,0.163-1.037,0.006-1.285-0.177C423.32,333.135,423.272,332.956,423.299,332.941z"/>
																</g>
															</g>
														</g>
													</g>
												</g>
											</g>
										</g>
									</g>
								</g>
							</g>
						</g>
					</g>
				</g>
			</g>
			<g>
				<g>
					<g>
						<g>
							<g>
								<g>
									<path style="fill:#263238;" d="M398,340.081c-0.085-0.204,1.494-0.655,2.618-2.116c0.562-0.719,0.891-1.507,1.138-2.082
										c0.242-0.58,0.424-0.943,0.51-0.915c0.081,0.026,0.056,0.421-0.081,1.053c-0.143,0.625-0.427,1.518-1.064,2.335
										c-0.627,0.825-1.461,1.312-2.071,1.543C398.435,340.139,398.02,340.15,398,340.081z"/>
								</g>
							</g>
						</g>
					</g>
				</g>
			</g>
			<g>
				<g>
					<g>
						<g>
							<g>
								<g>
									<path style="fill:#263238;" d="M431.54,311.657c-1.636-2.853-1.983-6.236-2.856-9.407
										c-0.873-3.171-2.591-6.467-5.675-7.611l-0.07,0.03c-2.767-1.154-6.196-1.215-8.505,0.687
										c-0.512-4.18-4.127-7.531-8.186-8.652c-4.058-1.121-10.599-0.568-14.525,0.954c-3.035,1.176-5.987,3.628-9.582,7.241
										c-1.515,1.522-2.914,3.163-4.16,4.911l-3.682,10.89l2.96,5.773c0.176,0.393,0.359,0.785,0.581,1.174l0.003-0.026
										l2.579,12.12c0.215-3.293,0.124-14.76,0.339-18.054c5.088-0.153,9.716-2.147,13.176-5.881
										c1.826-1.97,3.273-4.45,5.696-5.61c3.124-1.496,6.809-0.33,10.066,0.848l-0.137-0.127c1.692,0.809,3.226,1.947,4.492,3.331
										c-0.82,6.478-0.229,13.132,1.729,19.362c0.295,0.939,1.108,2.875,2.02,3.241c1.794,0.72,2.303-1.109,3.401-2.071
										c0.808-0.708,1.994-0.785,3.289-0.765c0.787-1.992,1.615-5.356,2.311-8.302c1.084,0.344,2.243,0.449,3.367,0.269
										c-0.335-0.832-0.669-1.664-1.004-2.495c0.446,0.29,0.908,0.587,1.434,0.671c0.525,0.084,1.133-0.105,1.375-0.578
										C432.288,312.969,431.882,312.254,431.54,311.657z"/>
								</g>
							</g>
						</g>
					</g>
				</g>
			</g>
			<g>
				<g>
					<g>
						<g>
							<g>
								<g>
									<path style="fill:#455A64;" d="M410.733,296.652c-0.024,0.03,0.487,0.316,1.161,1.089c0.668,0.77,1.411,2.104,1.747,3.911
										c0.173,0.898,0.275,1.902,0.261,2.979c-0.009,1.079-0.111,2.232-0.209,3.448c-0.095,1.216-0.198,2.5-0.137,3.838
										c0.03,0.668,0.102,1.348,0.238,2.029c0.139,0.669,0.305,1.395,0.801,1.975c0.395,0.473,1.063,0.689,1.645,0.577
										c0.586-0.096,1.111-0.401,1.497-0.82c0.765-0.87,0.967-1.982,1.167-2.963l-0.246,0.027c0.39,0.888,0.791,1.766,1.393,2.471
										c0.591,0.709,1.417,1.183,2.262,1.27c0.421,0.043,0.846-0.019,1.21-0.196c0.371-0.175,0.643-0.477,0.831-0.797
										c0.179-0.327,0.276-0.686,0.262-1.035c-0.015-0.348-0.147-0.679-0.364-0.915l-0.126,0.109
										c0.89,1.04,1.836,1.605,2.491,1.919c0.331,0.158,0.596,0.253,0.775,0.313c0.181,0.056,0.276,0.08,0.279,0.073
										c0.002-0.008-0.088-0.046-0.263-0.116c-0.173-0.074-0.431-0.182-0.751-0.35c-0.635-0.336-1.551-0.915-2.403-1.946
										l-0.126,0.109c0.388,0.422,0.402,1.156,0.055,1.741c-0.174,0.288-0.424,0.557-0.751,0.705
										c-0.325,0.154-0.712,0.208-1.096,0.164c-0.775-0.087-1.545-0.532-2.099-1.206c-0.568-0.673-0.956-1.528-1.341-2.418
										l-0.164-0.378l-0.083,0.404c-0.2,0.979-0.414,2.047-1.111,2.831c-0.346,0.376-0.827,0.652-1.34,0.734
										c-0.514,0.092-1.053-0.084-1.398-0.489c-0.434-0.502-0.605-1.19-0.739-1.848c-0.133-0.664-0.205-1.33-0.237-1.987
										c-0.063-1.316,0.034-2.592,0.121-3.807c0.091-1.215,0.185-2.374,0.184-3.466c0.005-1.092-0.111-2.109-0.298-3.019
										c-0.366-1.83-1.152-3.182-1.857-3.942C411.262,296.906,410.733,296.652,410.733,296.652z"/>
								</g>
							</g>
						</g>
					</g>
				</g>
			</g>
			<g>
				<g>
					<g>
						<g>
							<g>
								<g>
									<path style="fill:#455A64;" d="M374.365,307.577c-0.003,0.004,0.029,0.031,0.093,0.081c0.078,0.059,0.173,0.13,0.29,0.217
										c0.127,0.097,0.288,0.211,0.492,0.324c0.201,0.119,0.429,0.263,0.707,0.384c1.081,0.531,2.818,1.067,5,0.966
										c2.161-0.094,4.763-0.825,7.1-2.518c2.361-1.652,4.446-4.103,6.161-6.919c0.87-1.407,1.583-2.851,2.365-4.184
										c0.777-1.333,1.633-2.564,2.662-3.531c1.017-0.972,2.194-1.685,3.4-2.004c0.601-0.171,1.206-0.203,1.782-0.182
										c0.577,0.038,1.123,0.162,1.625,0.334c1.005,0.351,1.812,0.92,2.422,1.501c0.612,0.587,1.021,1.203,1.299,1.731
										c0.519,1.083,0.539,1.774,0.582,1.763c0.005-0.001,0.002-0.042-0.008-0.123c-0.014-0.097-0.031-0.215-0.051-0.359
										c-0.053-0.314-0.182-0.77-0.427-1.328c-0.268-0.544-0.672-1.183-1.288-1.794c-0.614-0.605-1.433-1.199-2.464-1.574
										c-0.515-0.183-1.078-0.317-1.676-0.362c-0.596-0.028-1.23,0.001-1.853,0.173c-1.253,0.321-2.47,1.05-3.516,2.04
										c-1.059,0.985-1.934,2.237-2.72,3.578c-0.792,1.342-1.505,2.783-2.368,4.176c-1.702,2.794-3.757,5.218-6.073,6.856
										c-2.294,1.678-4.835,2.412-6.964,2.531c-2.146,0.123-3.863-0.375-4.945-0.869
										C374.902,307.984,374.387,307.544,374.365,307.577z"/>
								</g>
							</g>
						</g>
					</g>
				</g>
			</g>
			<g>
				<g>
					<g>
						<g>
							<g>
								<g>
									<g>
										<g>
											<g>
												<path style="fill:#263238;" d="M382.711,320.184c0.23,0.24,1.595-0.831,3.557-0.858
													c1.959-0.057,3.414,0.954,3.623,0.704c0.103-0.111-0.134-0.547-0.767-1.004c-0.624-0.455-1.683-0.891-2.905-0.865
													c-1.222,0.027-2.242,0.505-2.826,0.987C382.796,319.633,382.598,320.077,382.711,320.184z"/>
											</g>
										</g>
									</g>
								</g>
							</g>
						</g>
					</g>
				</g>
			</g>
			<g>
				<g>
					<g>
						<g>
							<g>
								<g>
									<g>
										<g>
											<path style="fill:#263238;" d="M385.709,325.273c0.021,0.838,0.747,1.512,1.623,1.506
												c0.874-0.006,1.568-0.688,1.547-1.526c-0.021-0.838-0.747-1.513-1.622-1.507
												C386.382,323.751,385.688,324.435,385.709,325.273z"/>
										</g>
									</g>
								</g>
							</g>
						</g>
					</g>
				</g>
			</g>
			<g>
				<g>
					<g>
						<g>
							<g>
								<g>
									<path style="fill:#263238;" d="M378.98,298.474c-0.997,1.316-2.531,2.514-4.172,2.338
										c-0.485-0.052-1.746-0.513-1.746-0.513c-0.573,0.347-0.439,2.31-0.044,2.852c0.395,0.541,1.23,1.273,1.23,1.273
										c-1.925,1.034-3.678,0.524-5.73-0.228c0.36,3.494,2.738,6.707,5.974,8.073c1.034,0.437,2.29,0.673,3.233,0.064
										c0.83-0.537,1.171-1.565,1.422-2.52c0.922-3.511,1.408-7.135,1.443-10.765L378.98,298.474z"/>
								</g>
							</g>
						</g>
					</g>
				</g>
			</g>
		</g>
		<path style="fill:#455A64;" d="M366.636,375.463l0.214-0.27c9.383-9.928,26.652-13.253,26.652-13.253s1.056,6.5,10.737,7.226
			c9.681,0.726,16.792-9.135,16.792-9.135l12.915,1.809c0,0,6.501,0.766,10.549,3.147c9.116,5.362,13.954,23.858,13.954,23.858
			l-99.6,0.401L366.636,375.463z"/>
		<g>
			<path style="fill:#263238;" d="M357.528,278.009c0,0-0.235,0.025-0.696,0.055c-0.233,0.014-0.52,0.032-0.86,0.053
				c-0.341,0.032-0.733,0.112-1.181,0.178c-1.756,0.328-4.458,1.035-7.22,3.205c-1.369,1.073-2.743,2.491-3.866,4.312
				c-1.122,1.814-1.984,4.033-2.298,6.529c-0.154,1.245-0.143,2.555-0.134,3.914c0.003,1.358,0.005,2.761,0.008,4.208
				c0.005,2.896,0.01,5.97,0.016,9.214c0.015,12.98,0.034,28.683,0.055,46.591c0.004,4.478,0.008,9.093,0.012,13.839
				c0.007,1.185-0.024,2.388,0.064,3.566c0.075,1.186,0.321,2.36,0.646,3.517c0.7,2.302,1.96,4.457,3.632,6.264
				c1.664,1.819,3.787,3.256,6.157,4.125l0.891,0.323l0.921,0.236c0.609,0.186,1.245,0.243,1.874,0.348
				c1.262,0.149,2.556,0.14,3.869,0.132c5.232-0.003,10.578-0.006,16.03-0.008l0.237,0l0,0.237c0.003,8.04,0.007,16.635,0.01,25.447
				l-0.417-0.18c4.211-3.972,8.502-8.079,12.836-12.301c4.318-4.236,8.739-8.544,12.951-13.137l0.078-0.085h0.113
				c13.534-0.001,27.665-0.003,42.078-0.004c4.337,0,8.648,0,12.93,0c1.071,0,2.139,0,3.207,0c1.07,0.008,2.134,0.004,3.172-0.068
				c2.085-0.174,4.127-0.758,5.975-1.706c3.709-1.884,6.596-5.24,7.906-9.119c0.682-1.941,0.9-3.976,0.882-6.029
				c0-2.062,0.001-4.116,0.001-6.16c0.005-16.356,0.01-32.132,0.015-47.161c0.004-7.514,0.007-14.842,0.011-21.962
				c0.007-1.788,0.017-3.533-0.322-5.235c-0.364-1.692-0.982-3.31-1.822-4.791c-0.826-1.491-1.93-2.803-3.167-3.928
				c-1.241-1.121-2.63-2.076-4.142-2.736c-1.505-0.661-3.082-1.161-4.697-1.331c-1.602-0.184-3.236-0.131-4.849-0.139
				c-3.224-0.003-6.389-0.005-9.49-0.008c-6.203-0.006-12.157-0.011-17.84-0.017c-22.725-0.035-41.115-0.063-53.836-0.083
				c-6.349-0.021-11.281-0.038-14.637-0.049c-1.666-0.011-2.939-0.02-3.806-0.026C357.967,278.027,357.528,278.009,357.528,278.009
				s0.439-0.018,1.297-0.027c0.867-0.006,2.14-0.014,3.806-0.026c3.356-0.011,8.288-0.028,14.637-0.049
				c12.721-0.02,31.111-0.048,53.836-0.083c5.683-0.005,11.637-0.011,17.84-0.017c3.102-0.003,6.266-0.005,9.49-0.008
				c1.609,0.007,3.24-0.052,4.901,0.135c1.658,0.172,3.278,0.683,4.824,1.36c1.554,0.676,2.982,1.654,4.258,2.804
				c1.272,1.154,2.407,2.5,3.258,4.031c0.865,1.521,1.503,3.184,1.878,4.923c0.353,1.749,0.343,3.557,0.338,5.325
				c0.004,7.12,0.007,14.447,0.011,21.962c0.005,15.029,0.01,30.806,0.015,47.161c0,2.044,0.001,4.098,0.001,6.16
				c0.02,2.066-0.205,4.203-0.908,6.196c-1.352,4.005-4.329,7.467-8.157,9.413c-1.908,0.979-4.016,1.583-6.168,1.762
				c-1.085,0.076-2.151,0.078-3.216,0.071c-1.067,0-2.136,0-3.207,0c-4.283,0-8.594,0-12.93,0
				c-14.414-0.001-28.544-0.003-42.078-0.004l0.19-0.085c-4.233,4.614-8.654,8.916-12.979,13.155
				c-4.339,4.223-8.633,8.327-12.85,12.3l-0.417,0.393l0-0.573c0.004-8.811,0.007-17.406,0.01-25.447l0.237,0.237
				c-5.452-0.003-10.797-0.006-16.03-0.008c-1.301,0.007-2.617,0.016-3.924-0.139c-0.647-0.107-1.301-0.168-1.927-0.359
				l-0.946-0.244l-0.915-0.332c-2.435-0.896-4.613-2.376-6.32-4.246c-1.715-1.858-3.006-4.073-3.721-6.437
				c-0.333-1.188-0.582-2.394-0.658-3.611c-0.087-1.222-0.054-2.41-0.059-3.597c0.004-4.745,0.008-9.361,0.012-13.839
				c0.021-17.908,0.04-33.611,0.055-46.591c0.005-3.244,0.011-6.318,0.016-9.214c0.003-1.448,0.005-2.851,0.008-4.208
				c-0.004-1.353-0.01-2.676,0.152-3.942c0.329-2.529,1.214-4.772,2.359-6.6c1.146-1.835,2.542-3.259,3.931-4.333
				c2.803-2.17,5.531-2.857,7.3-3.161c0.451-0.06,0.845-0.134,1.188-0.16c0.341-0.013,0.629-0.025,0.863-0.034
				C357.293,278.008,357.528,278.009,357.528,278.009z"/>
		</g>
	</g>
</g>
</svg>
